<mxfile host="app.diagrams.net" modified="2020-09-24T11:48:02.617Z" agent="5.0 (Windows NT 10.0; Win64; x64) AppleWebKit/537.36 (KHTML, like Gecko) Chrome/85.0.4183.121 Safari/537.36" etag="WwbFDfbQIoJMhJ5gs3lG" version="13.7.5" type="github">
  <diagram id="-vkFmcvCN5NoshpQyxzZ" name="第 1 页">
    <mxGraphModel dx="2903" dy="1168" grid="1" gridSize="10" guides="1" tooltips="1" connect="1" arrows="1" fold="1" page="1" pageScale="1" pageWidth="827" pageHeight="1169" math="0" shadow="0">
      <root>
        <mxCell id="0" />
        <mxCell id="1" parent="0" />
        <mxCell id="WAY5q-WWtIifcvpQ36K1-55" value="" style="group" vertex="1" connectable="0" parent="1">
          <mxGeometry x="340" y="290" width="140" height="20" as="geometry" />
        </mxCell>
        <mxCell id="WAY5q-WWtIifcvpQ36K1-54" value="" style="group" vertex="1" connectable="0" parent="WAY5q-WWtIifcvpQ36K1-55">
          <mxGeometry width="140" height="20" as="geometry" />
        </mxCell>
        <mxCell id="WAY5q-WWtIifcvpQ36K1-53" value="" style="group" vertex="1" connectable="0" parent="WAY5q-WWtIifcvpQ36K1-54">
          <mxGeometry width="140" height="20" as="geometry" />
        </mxCell>
        <mxCell id="WAY5q-WWtIifcvpQ36K1-41" value="" style="group" vertex="1" connectable="0" parent="WAY5q-WWtIifcvpQ36K1-53">
          <mxGeometry width="140" height="20" as="geometry" />
        </mxCell>
        <mxCell id="WAY5q-WWtIifcvpQ36K1-42" value="" style="group" vertex="1" connectable="0" parent="WAY5q-WWtIifcvpQ36K1-41">
          <mxGeometry width="140" height="20" as="geometry" />
        </mxCell>
        <mxCell id="WAY5q-WWtIifcvpQ36K1-43" value="" style="group;container=1;" vertex="1" connectable="0" parent="WAY5q-WWtIifcvpQ36K1-42">
          <mxGeometry width="140" height="20" as="geometry" />
        </mxCell>
        <mxCell id="WAY5q-WWtIifcvpQ36K1-44" value="" style="group" vertex="1" connectable="0" parent="WAY5q-WWtIifcvpQ36K1-43">
          <mxGeometry x="-20" width="140" height="20" as="geometry" />
        </mxCell>
        <mxCell id="WAY5q-WWtIifcvpQ36K1-45" value="" style="group" vertex="1" connectable="0" parent="WAY5q-WWtIifcvpQ36K1-44">
          <mxGeometry width="140" height="20" as="geometry" />
        </mxCell>
        <mxCell id="WAY5q-WWtIifcvpQ36K1-46" value="" style="group" vertex="1" connectable="0" parent="WAY5q-WWtIifcvpQ36K1-45">
          <mxGeometry width="140" height="20" as="geometry" />
        </mxCell>
        <mxCell id="WAY5q-WWtIifcvpQ36K1-47" value="" style="group" vertex="1" connectable="0" parent="WAY5q-WWtIifcvpQ36K1-46">
          <mxGeometry x="10" width="90" height="20" as="geometry" />
        </mxCell>
        <mxCell id="WAY5q-WWtIifcvpQ36K1-48" value="85" style="rounded=0;whiteSpace=wrap;html=1;" vertex="1" parent="WAY5q-WWtIifcvpQ36K1-47">
          <mxGeometry x="10" width="30" height="20" as="geometry" />
        </mxCell>
        <mxCell id="WAY5q-WWtIifcvpQ36K1-49" value="" style="rounded=0;whiteSpace=wrap;html=1;" vertex="1" parent="WAY5q-WWtIifcvpQ36K1-47">
          <mxGeometry width="10" height="20" as="geometry" />
        </mxCell>
        <mxCell id="WAY5q-WWtIifcvpQ36K1-50" value="88" style="rounded=0;whiteSpace=wrap;html=1;" vertex="1" parent="WAY5q-WWtIifcvpQ36K1-47">
          <mxGeometry x="50" width="30" height="20" as="geometry" />
        </mxCell>
        <mxCell id="WAY5q-WWtIifcvpQ36K1-51" value="" style="rounded=0;whiteSpace=wrap;html=1;" vertex="1" parent="WAY5q-WWtIifcvpQ36K1-47">
          <mxGeometry x="40" width="10" height="20" as="geometry" />
        </mxCell>
        <mxCell id="WAY5q-WWtIifcvpQ36K1-52" value="" style="rounded=0;whiteSpace=wrap;html=1;" vertex="1" parent="WAY5q-WWtIifcvpQ36K1-47">
          <mxGeometry x="80" width="10" height="20" as="geometry" />
        </mxCell>
        <mxCell id="WAY5q-WWtIifcvpQ36K1-56" value="" style="group" vertex="1" connectable="0" parent="1">
          <mxGeometry x="120" y="380" width="140" height="20" as="geometry" />
        </mxCell>
        <mxCell id="WAY5q-WWtIifcvpQ36K1-57" value="" style="group" vertex="1" connectable="0" parent="WAY5q-WWtIifcvpQ36K1-56">
          <mxGeometry width="140" height="20" as="geometry" />
        </mxCell>
        <mxCell id="WAY5q-WWtIifcvpQ36K1-58" value="" style="group;container=1;" vertex="1" connectable="0" parent="WAY5q-WWtIifcvpQ36K1-57">
          <mxGeometry width="140" height="20" as="geometry" />
        </mxCell>
        <mxCell id="WAY5q-WWtIifcvpQ36K1-59" value="" style="group" vertex="1" connectable="0" parent="WAY5q-WWtIifcvpQ36K1-58">
          <mxGeometry x="-20" width="140" height="20" as="geometry" />
        </mxCell>
        <mxCell id="WAY5q-WWtIifcvpQ36K1-60" value="" style="group" vertex="1" connectable="0" parent="WAY5q-WWtIifcvpQ36K1-59">
          <mxGeometry width="140" height="20" as="geometry" />
        </mxCell>
        <mxCell id="WAY5q-WWtIifcvpQ36K1-61" value="" style="group" vertex="1" connectable="0" parent="WAY5q-WWtIifcvpQ36K1-60">
          <mxGeometry width="140" height="20" as="geometry" />
        </mxCell>
        <mxCell id="WAY5q-WWtIifcvpQ36K1-62" value="" style="group" vertex="1" connectable="0" parent="WAY5q-WWtIifcvpQ36K1-61">
          <mxGeometry x="10" width="90" height="20" as="geometry" />
        </mxCell>
        <mxCell id="WAY5q-WWtIifcvpQ36K1-63" value="77" style="rounded=0;whiteSpace=wrap;html=1;" vertex="1" parent="WAY5q-WWtIifcvpQ36K1-62">
          <mxGeometry x="10" width="30" height="20" as="geometry" />
        </mxCell>
        <mxCell id="WAY5q-WWtIifcvpQ36K1-64" value="" style="rounded=0;whiteSpace=wrap;html=1;" vertex="1" parent="WAY5q-WWtIifcvpQ36K1-62">
          <mxGeometry width="10" height="20" as="geometry" />
        </mxCell>
        <mxCell id="WAY5q-WWtIifcvpQ36K1-65" value="80" style="rounded=0;whiteSpace=wrap;html=1;" vertex="1" parent="WAY5q-WWtIifcvpQ36K1-62">
          <mxGeometry x="50" width="30" height="20" as="geometry" />
        </mxCell>
        <mxCell id="WAY5q-WWtIifcvpQ36K1-66" value="" style="rounded=0;whiteSpace=wrap;html=1;" vertex="1" parent="WAY5q-WWtIifcvpQ36K1-62">
          <mxGeometry x="40" width="10" height="20" as="geometry" />
        </mxCell>
        <mxCell id="WAY5q-WWtIifcvpQ36K1-67" value="" style="rounded=0;whiteSpace=wrap;html=1;" vertex="1" parent="WAY5q-WWtIifcvpQ36K1-62">
          <mxGeometry x="80" width="10" height="20" as="geometry" />
        </mxCell>
        <mxCell id="WAY5q-WWtIifcvpQ36K1-68" value="" style="group" vertex="1" connectable="0" parent="1">
          <mxGeometry x="340" y="380" width="140" height="20" as="geometry" />
        </mxCell>
        <mxCell id="WAY5q-WWtIifcvpQ36K1-69" value="" style="group" vertex="1" connectable="0" parent="WAY5q-WWtIifcvpQ36K1-68">
          <mxGeometry width="140" height="20" as="geometry" />
        </mxCell>
        <mxCell id="WAY5q-WWtIifcvpQ36K1-70" value="" style="group;container=1;" vertex="1" connectable="0" parent="WAY5q-WWtIifcvpQ36K1-69">
          <mxGeometry width="140" height="20" as="geometry" />
        </mxCell>
        <mxCell id="WAY5q-WWtIifcvpQ36K1-71" value="" style="group" vertex="1" connectable="0" parent="WAY5q-WWtIifcvpQ36K1-70">
          <mxGeometry x="-20" width="140" height="20" as="geometry" />
        </mxCell>
        <mxCell id="WAY5q-WWtIifcvpQ36K1-72" value="" style="group" vertex="1" connectable="0" parent="WAY5q-WWtIifcvpQ36K1-71">
          <mxGeometry width="140" height="20" as="geometry" />
        </mxCell>
        <mxCell id="WAY5q-WWtIifcvpQ36K1-73" value="" style="group" vertex="1" connectable="0" parent="WAY5q-WWtIifcvpQ36K1-72">
          <mxGeometry width="140" height="20" as="geometry" />
        </mxCell>
        <mxCell id="WAY5q-WWtIifcvpQ36K1-74" value="" style="group" vertex="1" connectable="0" parent="WAY5q-WWtIifcvpQ36K1-73">
          <mxGeometry x="10" width="90" height="20" as="geometry" />
        </mxCell>
        <mxCell id="WAY5q-WWtIifcvpQ36K1-75" value="85" style="rounded=0;whiteSpace=wrap;html=1;" vertex="1" parent="WAY5q-WWtIifcvpQ36K1-74">
          <mxGeometry x="10" width="30" height="20" as="geometry" />
        </mxCell>
        <mxCell id="WAY5q-WWtIifcvpQ36K1-76" value="" style="rounded=0;whiteSpace=wrap;html=1;" vertex="1" parent="WAY5q-WWtIifcvpQ36K1-74">
          <mxGeometry width="10" height="20" as="geometry" />
        </mxCell>
        <mxCell id="WAY5q-WWtIifcvpQ36K1-77" value="" style="rounded=0;whiteSpace=wrap;html=1;" vertex="1" parent="WAY5q-WWtIifcvpQ36K1-74">
          <mxGeometry x="50" width="30" height="20" as="geometry" />
        </mxCell>
        <mxCell id="WAY5q-WWtIifcvpQ36K1-78" value="" style="rounded=0;whiteSpace=wrap;html=1;" vertex="1" parent="WAY5q-WWtIifcvpQ36K1-74">
          <mxGeometry x="40" width="10" height="20" as="geometry" />
        </mxCell>
        <mxCell id="WAY5q-WWtIifcvpQ36K1-79" value="" style="rounded=0;whiteSpace=wrap;html=1;" vertex="1" parent="WAY5q-WWtIifcvpQ36K1-74">
          <mxGeometry x="80" width="10" height="20" as="geometry" />
        </mxCell>
        <mxCell id="WAY5q-WWtIifcvpQ36K1-117" value="" style="group" vertex="1" connectable="0" parent="1">
          <mxGeometry x="560" y="380" width="140" height="20" as="geometry" />
        </mxCell>
        <mxCell id="WAY5q-WWtIifcvpQ36K1-93" value="" style="group" vertex="1" connectable="0" parent="WAY5q-WWtIifcvpQ36K1-117">
          <mxGeometry width="140" height="20" as="geometry" />
        </mxCell>
        <mxCell id="WAY5q-WWtIifcvpQ36K1-94" value="" style="group" vertex="1" connectable="0" parent="WAY5q-WWtIifcvpQ36K1-93">
          <mxGeometry width="140" height="20" as="geometry" />
        </mxCell>
        <mxCell id="WAY5q-WWtIifcvpQ36K1-95" value="" style="group;container=1;" vertex="1" connectable="0" parent="WAY5q-WWtIifcvpQ36K1-94">
          <mxGeometry width="140" height="20" as="geometry" />
        </mxCell>
        <mxCell id="WAY5q-WWtIifcvpQ36K1-96" value="" style="group" vertex="1" connectable="0" parent="WAY5q-WWtIifcvpQ36K1-95">
          <mxGeometry x="-20" width="140" height="20" as="geometry" />
        </mxCell>
        <mxCell id="WAY5q-WWtIifcvpQ36K1-97" value="" style="group" vertex="1" connectable="0" parent="WAY5q-WWtIifcvpQ36K1-96">
          <mxGeometry width="140" height="20" as="geometry" />
        </mxCell>
        <mxCell id="WAY5q-WWtIifcvpQ36K1-98" value="" style="group" vertex="1" connectable="0" parent="WAY5q-WWtIifcvpQ36K1-97">
          <mxGeometry width="140" height="20" as="geometry" />
        </mxCell>
        <mxCell id="WAY5q-WWtIifcvpQ36K1-99" value="" style="group" vertex="1" connectable="0" parent="WAY5q-WWtIifcvpQ36K1-98">
          <mxGeometry x="10" width="90" height="20" as="geometry" />
        </mxCell>
        <mxCell id="WAY5q-WWtIifcvpQ36K1-100" value="88" style="rounded=0;whiteSpace=wrap;html=1;" vertex="1" parent="WAY5q-WWtIifcvpQ36K1-99">
          <mxGeometry x="10" width="30" height="20" as="geometry" />
        </mxCell>
        <mxCell id="WAY5q-WWtIifcvpQ36K1-101" value="" style="rounded=0;whiteSpace=wrap;html=1;" vertex="1" parent="WAY5q-WWtIifcvpQ36K1-99">
          <mxGeometry width="10" height="20" as="geometry" />
        </mxCell>
        <mxCell id="WAY5q-WWtIifcvpQ36K1-102" value="" style="rounded=0;whiteSpace=wrap;html=1;" vertex="1" parent="WAY5q-WWtIifcvpQ36K1-99">
          <mxGeometry x="50" width="30" height="20" as="geometry" />
        </mxCell>
        <mxCell id="WAY5q-WWtIifcvpQ36K1-103" value="" style="rounded=0;whiteSpace=wrap;html=1;" vertex="1" parent="WAY5q-WWtIifcvpQ36K1-99">
          <mxGeometry x="40" width="10" height="20" as="geometry" />
        </mxCell>
        <mxCell id="WAY5q-WWtIifcvpQ36K1-104" value="" style="rounded=0;whiteSpace=wrap;html=1;" vertex="1" parent="WAY5q-WWtIifcvpQ36K1-99">
          <mxGeometry x="80" width="10" height="20" as="geometry" />
        </mxCell>
        <mxCell id="WAY5q-WWtIifcvpQ36K1-118" style="rounded=0;orthogonalLoop=1;jettySize=auto;html=1;exitX=0;exitY=0.5;exitDx=0;exitDy=0;entryX=0.5;entryY=0;entryDx=0;entryDy=0;" edge="1" parent="1" source="WAY5q-WWtIifcvpQ36K1-49" target="WAY5q-WWtIifcvpQ36K1-66">
          <mxGeometry relative="1" as="geometry" />
        </mxCell>
        <mxCell id="WAY5q-WWtIifcvpQ36K1-119" style="edgeStyle=none;rounded=0;orthogonalLoop=1;jettySize=auto;html=1;exitX=0;exitY=0.5;exitDx=0;exitDy=0;entryX=0.5;entryY=0;entryDx=0;entryDy=0;" edge="1" parent="1" source="WAY5q-WWtIifcvpQ36K1-51" target="WAY5q-WWtIifcvpQ36K1-78">
          <mxGeometry relative="1" as="geometry" />
        </mxCell>
        <mxCell id="WAY5q-WWtIifcvpQ36K1-120" style="edgeStyle=none;rounded=0;orthogonalLoop=1;jettySize=auto;html=1;exitX=0;exitY=0.5;exitDx=0;exitDy=0;entryX=1;entryY=0;entryDx=0;entryDy=0;" edge="1" parent="1" source="WAY5q-WWtIifcvpQ36K1-52" target="WAY5q-WWtIifcvpQ36K1-100">
          <mxGeometry relative="1" as="geometry" />
        </mxCell>
        <mxCell id="WAY5q-WWtIifcvpQ36K1-122" value="" style="group" vertex="1" connectable="0" parent="1">
          <mxGeometry x="320" y="113" width="140" height="20" as="geometry" />
        </mxCell>
        <mxCell id="WAY5q-WWtIifcvpQ36K1-121" value="" style="group" vertex="1" connectable="0" parent="WAY5q-WWtIifcvpQ36K1-122">
          <mxGeometry width="140" height="20" as="geometry" />
        </mxCell>
        <mxCell id="WAY5q-WWtIifcvpQ36K1-38" value="" style="group" vertex="1" connectable="0" parent="WAY5q-WWtIifcvpQ36K1-121">
          <mxGeometry width="140" height="20" as="geometry" />
        </mxCell>
        <mxCell id="WAY5q-WWtIifcvpQ36K1-39" value="" style="group" vertex="1" connectable="0" parent="1">
          <mxGeometry x="100" y="113" width="140" height="20" as="geometry" />
        </mxCell>
        <mxCell id="WAY5q-WWtIifcvpQ36K1-9" value="" style="group" vertex="1" connectable="0" parent="WAY5q-WWtIifcvpQ36K1-39">
          <mxGeometry width="140" height="20" as="geometry" />
        </mxCell>
        <mxCell id="WAY5q-WWtIifcvpQ36K1-8" value="" style="group" vertex="1" connectable="0" parent="WAY5q-WWtIifcvpQ36K1-9">
          <mxGeometry width="140" height="20" as="geometry" />
        </mxCell>
        <mxCell id="WAY5q-WWtIifcvpQ36K1-7" value="" style="group" vertex="1" connectable="0" parent="WAY5q-WWtIifcvpQ36K1-8">
          <mxGeometry width="140" height="20" as="geometry" />
        </mxCell>
        <mxCell id="WAY5q-WWtIifcvpQ36K1-24" value="" style="group" vertex="1" connectable="0" parent="WAY5q-WWtIifcvpQ36K1-7">
          <mxGeometry x="10" width="90" height="20" as="geometry" />
        </mxCell>
        <mxCell id="WAY5q-WWtIifcvpQ36K1-1" value="85" style="rounded=0;whiteSpace=wrap;html=1;" vertex="1" parent="WAY5q-WWtIifcvpQ36K1-24">
          <mxGeometry x="10" width="30" height="20" as="geometry" />
        </mxCell>
        <mxCell id="WAY5q-WWtIifcvpQ36K1-2" value="" style="rounded=0;whiteSpace=wrap;html=1;" vertex="1" parent="WAY5q-WWtIifcvpQ36K1-24">
          <mxGeometry width="10" height="20" as="geometry" />
        </mxCell>
        <mxCell id="WAY5q-WWtIifcvpQ36K1-3" value="88" style="rounded=0;whiteSpace=wrap;html=1;" vertex="1" parent="WAY5q-WWtIifcvpQ36K1-24">
          <mxGeometry x="50" width="30" height="20" as="geometry" />
        </mxCell>
        <mxCell id="WAY5q-WWtIifcvpQ36K1-4" value="" style="rounded=0;whiteSpace=wrap;html=1;" vertex="1" parent="WAY5q-WWtIifcvpQ36K1-24">
          <mxGeometry x="40" width="10" height="20" as="geometry" />
        </mxCell>
        <mxCell id="WAY5q-WWtIifcvpQ36K1-6" value="" style="rounded=0;whiteSpace=wrap;html=1;" vertex="1" parent="WAY5q-WWtIifcvpQ36K1-24">
          <mxGeometry x="80" width="10" height="20" as="geometry" />
        </mxCell>
        <mxCell id="WAY5q-WWtIifcvpQ36K1-124" value="" style="endArrow=classic;html=1;" edge="1" parent="1">
          <mxGeometry width="50" height="50" relative="1" as="geometry">
            <mxPoint x="240" y="120" as="sourcePoint" />
            <mxPoint x="360" y="120" as="targetPoint" />
          </mxGeometry>
        </mxCell>
        <mxCell id="WAY5q-WWtIifcvpQ36K1-125" value="" style="group" vertex="1" connectable="0" parent="1">
          <mxGeometry x="530" y="80" width="140" height="20" as="geometry" />
        </mxCell>
        <mxCell id="WAY5q-WWtIifcvpQ36K1-126" value="" style="group" vertex="1" connectable="0" parent="WAY5q-WWtIifcvpQ36K1-125">
          <mxGeometry width="140" height="20" as="geometry" />
        </mxCell>
        <mxCell id="WAY5q-WWtIifcvpQ36K1-127" value="" style="group;container=1;" vertex="1" connectable="0" parent="WAY5q-WWtIifcvpQ36K1-126">
          <mxGeometry width="140" height="20" as="geometry" />
        </mxCell>
        <mxCell id="WAY5q-WWtIifcvpQ36K1-128" value="" style="group" vertex="1" connectable="0" parent="WAY5q-WWtIifcvpQ36K1-127">
          <mxGeometry x="-20" width="140" height="20" as="geometry" />
        </mxCell>
        <mxCell id="WAY5q-WWtIifcvpQ36K1-129" value="" style="group" vertex="1" connectable="0" parent="WAY5q-WWtIifcvpQ36K1-128">
          <mxGeometry width="140" height="20" as="geometry" />
        </mxCell>
        <mxCell id="WAY5q-WWtIifcvpQ36K1-130" value="" style="group" vertex="1" connectable="0" parent="WAY5q-WWtIifcvpQ36K1-129">
          <mxGeometry width="140" height="20" as="geometry" />
        </mxCell>
        <mxCell id="WAY5q-WWtIifcvpQ36K1-131" value="" style="group" vertex="1" connectable="0" parent="WAY5q-WWtIifcvpQ36K1-130">
          <mxGeometry x="10" width="90" height="20" as="geometry" />
        </mxCell>
        <mxCell id="WAY5q-WWtIifcvpQ36K1-132" value="88" style="rounded=0;whiteSpace=wrap;html=1;" vertex="1" parent="WAY5q-WWtIifcvpQ36K1-131">
          <mxGeometry x="10" width="30" height="20" as="geometry" />
        </mxCell>
        <mxCell id="WAY5q-WWtIifcvpQ36K1-133" value="" style="rounded=0;whiteSpace=wrap;html=1;" vertex="1" parent="WAY5q-WWtIifcvpQ36K1-131">
          <mxGeometry width="10" height="20" as="geometry" />
        </mxCell>
        <mxCell id="WAY5q-WWtIifcvpQ36K1-134" value="" style="rounded=0;whiteSpace=wrap;html=1;" vertex="1" parent="WAY5q-WWtIifcvpQ36K1-131">
          <mxGeometry x="50" width="30" height="20" as="geometry" />
        </mxCell>
        <mxCell id="WAY5q-WWtIifcvpQ36K1-135" value="" style="rounded=0;whiteSpace=wrap;html=1;" vertex="1" parent="WAY5q-WWtIifcvpQ36K1-131">
          <mxGeometry x="40" width="10" height="20" as="geometry" />
        </mxCell>
        <mxCell id="WAY5q-WWtIifcvpQ36K1-136" value="" style="rounded=0;whiteSpace=wrap;html=1;" vertex="1" parent="WAY5q-WWtIifcvpQ36K1-131">
          <mxGeometry x="80" width="10" height="20" as="geometry" />
        </mxCell>
        <mxCell id="WAY5q-WWtIifcvpQ36K1-152" value="" style="group" vertex="1" connectable="0" parent="1">
          <mxGeometry x="430" y="160" width="140" height="20" as="geometry" />
        </mxCell>
        <mxCell id="WAY5q-WWtIifcvpQ36K1-150" value="" style="group" vertex="1" connectable="0" parent="WAY5q-WWtIifcvpQ36K1-152">
          <mxGeometry width="140" height="20" as="geometry" />
        </mxCell>
        <mxCell id="WAY5q-WWtIifcvpQ36K1-137" value="" style="group" vertex="1" connectable="0" parent="WAY5q-WWtIifcvpQ36K1-150">
          <mxGeometry width="140" height="20" as="geometry" />
        </mxCell>
        <mxCell id="WAY5q-WWtIifcvpQ36K1-138" value="" style="group" vertex="1" connectable="0" parent="WAY5q-WWtIifcvpQ36K1-137">
          <mxGeometry width="140" height="20" as="geometry" />
        </mxCell>
        <mxCell id="WAY5q-WWtIifcvpQ36K1-139" value="" style="group;container=1;" vertex="1" connectable="0" parent="WAY5q-WWtIifcvpQ36K1-138">
          <mxGeometry width="140" height="20" as="geometry" />
        </mxCell>
        <mxCell id="WAY5q-WWtIifcvpQ36K1-140" value="" style="group" vertex="1" connectable="0" parent="WAY5q-WWtIifcvpQ36K1-139">
          <mxGeometry x="-10" width="140" height="20" as="geometry" />
        </mxCell>
        <mxCell id="WAY5q-WWtIifcvpQ36K1-141" value="" style="group" vertex="1" connectable="0" parent="WAY5q-WWtIifcvpQ36K1-140">
          <mxGeometry width="140" height="20" as="geometry" />
        </mxCell>
        <mxCell id="WAY5q-WWtIifcvpQ36K1-142" value="" style="group" vertex="1" connectable="0" parent="WAY5q-WWtIifcvpQ36K1-141">
          <mxGeometry width="140" height="20" as="geometry" />
        </mxCell>
        <mxCell id="WAY5q-WWtIifcvpQ36K1-143" value="" style="group" vertex="1" connectable="0" parent="WAY5q-WWtIifcvpQ36K1-142">
          <mxGeometry x="10" width="90" height="20" as="geometry" />
        </mxCell>
        <mxCell id="WAY5q-WWtIifcvpQ36K1-144" value="80" style="rounded=0;whiteSpace=wrap;html=1;" vertex="1" parent="WAY5q-WWtIifcvpQ36K1-143">
          <mxGeometry x="10" width="30" height="20" as="geometry" />
        </mxCell>
        <mxCell id="WAY5q-WWtIifcvpQ36K1-145" value="" style="rounded=0;whiteSpace=wrap;html=1;" vertex="1" parent="WAY5q-WWtIifcvpQ36K1-143">
          <mxGeometry width="10" height="20" as="geometry" />
        </mxCell>
        <mxCell id="WAY5q-WWtIifcvpQ36K1-146" value="85" style="rounded=0;whiteSpace=wrap;html=1;" vertex="1" parent="WAY5q-WWtIifcvpQ36K1-143">
          <mxGeometry x="50" width="30" height="20" as="geometry" />
        </mxCell>
        <mxCell id="WAY5q-WWtIifcvpQ36K1-147" value="" style="rounded=0;whiteSpace=wrap;html=1;" vertex="1" parent="WAY5q-WWtIifcvpQ36K1-143">
          <mxGeometry x="40" width="10" height="20" as="geometry" />
        </mxCell>
        <mxCell id="WAY5q-WWtIifcvpQ36K1-148" value="" style="rounded=0;whiteSpace=wrap;html=1;" vertex="1" parent="WAY5q-WWtIifcvpQ36K1-143">
          <mxGeometry x="80" width="10" height="20" as="geometry" />
        </mxCell>
        <mxCell id="WAY5q-WWtIifcvpQ36K1-153" value="" style="group" vertex="1" connectable="0" parent="1">
          <mxGeometry x="610" y="160" width="140" height="20" as="geometry" />
        </mxCell>
        <mxCell id="WAY5q-WWtIifcvpQ36K1-154" value="" style="group" vertex="1" connectable="0" parent="WAY5q-WWtIifcvpQ36K1-153">
          <mxGeometry width="140" height="20" as="geometry" />
        </mxCell>
        <mxCell id="WAY5q-WWtIifcvpQ36K1-155" value="" style="group;container=1;" vertex="1" connectable="0" parent="WAY5q-WWtIifcvpQ36K1-154">
          <mxGeometry width="140" height="20" as="geometry" />
        </mxCell>
        <mxCell id="WAY5q-WWtIifcvpQ36K1-156" value="" style="group" vertex="1" connectable="0" parent="WAY5q-WWtIifcvpQ36K1-155">
          <mxGeometry x="-20" width="140" height="20" as="geometry" />
        </mxCell>
        <mxCell id="WAY5q-WWtIifcvpQ36K1-157" value="" style="group" vertex="1" connectable="0" parent="WAY5q-WWtIifcvpQ36K1-156">
          <mxGeometry width="140" height="20" as="geometry" />
        </mxCell>
        <mxCell id="WAY5q-WWtIifcvpQ36K1-158" value="" style="group" vertex="1" connectable="0" parent="WAY5q-WWtIifcvpQ36K1-157">
          <mxGeometry width="140" height="20" as="geometry" />
        </mxCell>
        <mxCell id="WAY5q-WWtIifcvpQ36K1-159" value="" style="group" vertex="1" connectable="0" parent="WAY5q-WWtIifcvpQ36K1-158">
          <mxGeometry x="10" width="90" height="20" as="geometry" />
        </mxCell>
        <mxCell id="WAY5q-WWtIifcvpQ36K1-160" value="88" style="rounded=0;whiteSpace=wrap;html=1;" vertex="1" parent="WAY5q-WWtIifcvpQ36K1-159">
          <mxGeometry x="10" width="30" height="20" as="geometry" />
        </mxCell>
        <mxCell id="WAY5q-WWtIifcvpQ36K1-161" value="" style="rounded=0;whiteSpace=wrap;html=1;" vertex="1" parent="WAY5q-WWtIifcvpQ36K1-159">
          <mxGeometry width="10" height="20" as="geometry" />
        </mxCell>
        <mxCell id="WAY5q-WWtIifcvpQ36K1-162" value="" style="rounded=0;whiteSpace=wrap;html=1;" vertex="1" parent="WAY5q-WWtIifcvpQ36K1-159">
          <mxGeometry x="50" width="30" height="20" as="geometry" />
        </mxCell>
        <mxCell id="WAY5q-WWtIifcvpQ36K1-163" value="" style="rounded=0;whiteSpace=wrap;html=1;" vertex="1" parent="WAY5q-WWtIifcvpQ36K1-159">
          <mxGeometry x="40" width="10" height="20" as="geometry" />
        </mxCell>
        <mxCell id="WAY5q-WWtIifcvpQ36K1-164" value="" style="rounded=0;whiteSpace=wrap;html=1;" vertex="1" parent="WAY5q-WWtIifcvpQ36K1-159">
          <mxGeometry x="80" width="10" height="20" as="geometry" />
        </mxCell>
        <mxCell id="WAY5q-WWtIifcvpQ36K1-167" style="edgeStyle=none;rounded=0;orthogonalLoop=1;jettySize=auto;html=1;exitX=0;exitY=0.5;exitDx=0;exitDy=0;entryX=0;entryY=0.5;entryDx=0;entryDy=0;" edge="1" parent="1" source="WAY5q-WWtIifcvpQ36K1-148" target="WAY5q-WWtIifcvpQ36K1-161">
          <mxGeometry relative="1" as="geometry" />
        </mxCell>
        <mxCell id="WAY5q-WWtIifcvpQ36K1-168" style="edgeStyle=none;rounded=0;orthogonalLoop=1;jettySize=auto;html=1;exitX=1;exitY=0.5;exitDx=0;exitDy=0;entryX=1;entryY=0.25;entryDx=0;entryDy=0;" edge="1" parent="1" source="WAY5q-WWtIifcvpQ36K1-133" target="WAY5q-WWtIifcvpQ36K1-144">
          <mxGeometry relative="1" as="geometry" />
        </mxCell>
        <mxCell id="WAY5q-WWtIifcvpQ36K1-169" style="edgeStyle=none;rounded=0;orthogonalLoop=1;jettySize=auto;html=1;exitX=1;exitY=1;exitDx=0;exitDy=0;entryX=0.5;entryY=0;entryDx=0;entryDy=0;" edge="1" parent="1" source="WAY5q-WWtIifcvpQ36K1-132" target="WAY5q-WWtIifcvpQ36K1-163">
          <mxGeometry relative="1" as="geometry" />
        </mxCell>
        <mxCell id="WAY5q-WWtIifcvpQ36K1-170" value="" style="endArrow=classic;html=1;edgeStyle=orthogonalEdgeStyle;rounded=0;" edge="1" parent="1">
          <mxGeometry width="50" height="50" relative="1" as="geometry">
            <mxPoint x="710" y="120" as="sourcePoint" />
            <mxPoint x="680" y="360" as="targetPoint" />
            <Array as="points">
              <mxPoint x="780" y="120" />
            </Array>
          </mxGeometry>
        </mxCell>
        <mxCell id="WAY5q-WWtIifcvpQ36K1-171" value="insert 80" style="text;html=1;align=center;verticalAlign=middle;resizable=0;points=[];autosize=1;" vertex="1" parent="1">
          <mxGeometry x="260" y="93" width="60" height="20" as="geometry" />
        </mxCell>
        <mxCell id="WAY5q-WWtIifcvpQ36K1-173" value="" style="group" vertex="1" connectable="0" parent="1">
          <mxGeometry x="330" y="530" width="140" height="20" as="geometry" />
        </mxCell>
        <mxCell id="WAY5q-WWtIifcvpQ36K1-174" value="" style="group" vertex="1" connectable="0" parent="WAY5q-WWtIifcvpQ36K1-173">
          <mxGeometry width="140" height="20" as="geometry" />
        </mxCell>
        <mxCell id="WAY5q-WWtIifcvpQ36K1-175" value="" style="group" vertex="1" connectable="0" parent="WAY5q-WWtIifcvpQ36K1-174">
          <mxGeometry width="140" height="20" as="geometry" />
        </mxCell>
        <mxCell id="WAY5q-WWtIifcvpQ36K1-176" value="" style="group" vertex="1" connectable="0" parent="WAY5q-WWtIifcvpQ36K1-175">
          <mxGeometry width="140" height="20" as="geometry" />
        </mxCell>
        <mxCell id="WAY5q-WWtIifcvpQ36K1-188" value="" style="group" vertex="1" connectable="0" parent="1">
          <mxGeometry x="110" y="620" width="140" height="20" as="geometry" />
        </mxCell>
        <mxCell id="WAY5q-WWtIifcvpQ36K1-189" value="" style="group" vertex="1" connectable="0" parent="WAY5q-WWtIifcvpQ36K1-188">
          <mxGeometry width="140" height="20" as="geometry" />
        </mxCell>
        <mxCell id="WAY5q-WWtIifcvpQ36K1-190" value="" style="group;container=1;" vertex="1" connectable="0" parent="WAY5q-WWtIifcvpQ36K1-189">
          <mxGeometry width="140" height="20" as="geometry" />
        </mxCell>
        <mxCell id="WAY5q-WWtIifcvpQ36K1-191" value="" style="group" vertex="1" connectable="0" parent="WAY5q-WWtIifcvpQ36K1-190">
          <mxGeometry x="40" width="140" height="20" as="geometry" />
        </mxCell>
        <mxCell id="WAY5q-WWtIifcvpQ36K1-192" value="" style="group" vertex="1" connectable="0" parent="WAY5q-WWtIifcvpQ36K1-191">
          <mxGeometry width="140" height="20" as="geometry" />
        </mxCell>
        <mxCell id="WAY5q-WWtIifcvpQ36K1-193" value="" style="group" vertex="1" connectable="0" parent="WAY5q-WWtIifcvpQ36K1-192">
          <mxGeometry width="140" height="20" as="geometry" />
        </mxCell>
        <mxCell id="WAY5q-WWtIifcvpQ36K1-194" value="" style="group" vertex="1" connectable="0" parent="WAY5q-WWtIifcvpQ36K1-193">
          <mxGeometry x="10" width="90" height="20" as="geometry" />
        </mxCell>
        <mxCell id="WAY5q-WWtIifcvpQ36K1-195" value="53" style="rounded=0;whiteSpace=wrap;html=1;" vertex="1" parent="WAY5q-WWtIifcvpQ36K1-194">
          <mxGeometry x="10" width="30" height="20" as="geometry" />
        </mxCell>
        <mxCell id="WAY5q-WWtIifcvpQ36K1-196" value="" style="rounded=0;whiteSpace=wrap;html=1;" vertex="1" parent="WAY5q-WWtIifcvpQ36K1-194">
          <mxGeometry width="10" height="20" as="geometry" />
        </mxCell>
        <mxCell id="WAY5q-WWtIifcvpQ36K1-197" value="77" style="rounded=0;whiteSpace=wrap;html=1;" vertex="1" parent="WAY5q-WWtIifcvpQ36K1-194">
          <mxGeometry x="50" width="30" height="20" as="geometry" />
        </mxCell>
        <mxCell id="WAY5q-WWtIifcvpQ36K1-198" value="" style="rounded=0;whiteSpace=wrap;html=1;" vertex="1" parent="WAY5q-WWtIifcvpQ36K1-194">
          <mxGeometry x="40" width="10" height="20" as="geometry" />
        </mxCell>
        <mxCell id="WAY5q-WWtIifcvpQ36K1-199" value="" style="rounded=0;whiteSpace=wrap;html=1;" vertex="1" parent="WAY5q-WWtIifcvpQ36K1-194">
          <mxGeometry x="80" width="10" height="20" as="geometry" />
        </mxCell>
        <mxCell id="WAY5q-WWtIifcvpQ36K1-200" value="" style="group" vertex="1" connectable="0" parent="1">
          <mxGeometry x="330" y="620" width="140" height="20" as="geometry" />
        </mxCell>
        <mxCell id="WAY5q-WWtIifcvpQ36K1-212" value="" style="group" vertex="1" connectable="0" parent="1">
          <mxGeometry x="550" y="620" width="140" height="20" as="geometry" />
        </mxCell>
        <mxCell id="WAY5q-WWtIifcvpQ36K1-213" value="" style="group" vertex="1" connectable="0" parent="WAY5q-WWtIifcvpQ36K1-212">
          <mxGeometry width="140" height="20" as="geometry" />
        </mxCell>
        <mxCell id="WAY5q-WWtIifcvpQ36K1-203" value="" style="group" vertex="1" connectable="0" parent="WAY5q-WWtIifcvpQ36K1-212">
          <mxGeometry x="-65" width="140" height="20" as="geometry" />
        </mxCell>
        <mxCell id="WAY5q-WWtIifcvpQ36K1-204" value="" style="group" vertex="1" connectable="0" parent="WAY5q-WWtIifcvpQ36K1-203">
          <mxGeometry width="140" height="20" as="geometry" />
        </mxCell>
        <mxCell id="WAY5q-WWtIifcvpQ36K1-205" value="" style="group" vertex="1" connectable="0" parent="WAY5q-WWtIifcvpQ36K1-204">
          <mxGeometry width="140" height="20" as="geometry" />
        </mxCell>
        <mxCell id="WAY5q-WWtIifcvpQ36K1-206" value="" style="group" vertex="1" connectable="0" parent="WAY5q-WWtIifcvpQ36K1-205">
          <mxGeometry x="10" width="90" height="20" as="geometry" />
        </mxCell>
        <mxCell id="WAY5q-WWtIifcvpQ36K1-207" value="85" style="rounded=0;whiteSpace=wrap;html=1;" vertex="1" parent="WAY5q-WWtIifcvpQ36K1-206">
          <mxGeometry x="10" width="30" height="20" as="geometry" />
        </mxCell>
        <mxCell id="WAY5q-WWtIifcvpQ36K1-208" value="" style="rounded=0;whiteSpace=wrap;html=1;" vertex="1" parent="WAY5q-WWtIifcvpQ36K1-206">
          <mxGeometry width="10" height="20" as="geometry" />
        </mxCell>
        <mxCell id="WAY5q-WWtIifcvpQ36K1-209" value="" style="rounded=0;whiteSpace=wrap;html=1;" vertex="1" parent="WAY5q-WWtIifcvpQ36K1-206">
          <mxGeometry x="50" width="30" height="20" as="geometry" />
        </mxCell>
        <mxCell id="WAY5q-WWtIifcvpQ36K1-210" value="" style="rounded=0;whiteSpace=wrap;html=1;" vertex="1" parent="WAY5q-WWtIifcvpQ36K1-206">
          <mxGeometry x="40" width="10" height="20" as="geometry" />
        </mxCell>
        <mxCell id="WAY5q-WWtIifcvpQ36K1-211" value="" style="rounded=0;whiteSpace=wrap;html=1;" vertex="1" parent="WAY5q-WWtIifcvpQ36K1-206">
          <mxGeometry x="80" width="10" height="20" as="geometry" />
        </mxCell>
        <mxCell id="WAY5q-WWtIifcvpQ36K1-225" style="rounded=0;orthogonalLoop=1;jettySize=auto;html=1;exitX=0;exitY=0.5;exitDx=0;exitDy=0;entryX=0.5;entryY=0;entryDx=0;entryDy=0;" edge="1" parent="1" source="WAY5q-WWtIifcvpQ36K1-184" target="WAY5q-WWtIifcvpQ36K1-198">
          <mxGeometry relative="1" as="geometry" />
        </mxCell>
        <mxCell id="WAY5q-WWtIifcvpQ36K1-226" style="edgeStyle=none;rounded=0;orthogonalLoop=1;jettySize=auto;html=1;exitX=0;exitY=0.5;exitDx=0;exitDy=0;entryX=0.5;entryY=0;entryDx=0;entryDy=0;" edge="1" parent="1" source="WAY5q-WWtIifcvpQ36K1-302" target="WAY5q-WWtIifcvpQ36K1-210">
          <mxGeometry relative="1" as="geometry" />
        </mxCell>
        <mxCell id="WAY5q-WWtIifcvpQ36K1-227" style="edgeStyle=none;rounded=0;orthogonalLoop=1;jettySize=auto;html=1;exitX=1;exitY=0.5;exitDx=0;exitDy=0;entryX=1;entryY=0;entryDx=0;entryDy=0;" edge="1" parent="1" source="WAY5q-WWtIifcvpQ36K1-304" target="WAY5q-WWtIifcvpQ36K1-220">
          <mxGeometry relative="1" as="geometry" />
        </mxCell>
        <mxCell id="WAY5q-WWtIifcvpQ36K1-292" value="" style="group" vertex="1" connectable="0" parent="1">
          <mxGeometry x="380" y="460" width="90" height="20" as="geometry" />
        </mxCell>
        <mxCell id="WAY5q-WWtIifcvpQ36K1-283" value="" style="group" vertex="1" connectable="0" parent="WAY5q-WWtIifcvpQ36K1-292">
          <mxGeometry width="90" height="20" as="geometry" />
        </mxCell>
        <mxCell id="WAY5q-WWtIifcvpQ36K1-284" value="85" style="rounded=0;whiteSpace=wrap;html=1;" vertex="1" parent="WAY5q-WWtIifcvpQ36K1-283">
          <mxGeometry x="10" width="30" height="20" as="geometry" />
        </mxCell>
        <mxCell id="WAY5q-WWtIifcvpQ36K1-285" value="" style="rounded=0;whiteSpace=wrap;html=1;" vertex="1" parent="WAY5q-WWtIifcvpQ36K1-283">
          <mxGeometry width="10" height="20" as="geometry" />
        </mxCell>
        <mxCell id="WAY5q-WWtIifcvpQ36K1-286" value="" style="rounded=0;whiteSpace=wrap;html=1;" vertex="1" parent="WAY5q-WWtIifcvpQ36K1-283">
          <mxGeometry x="50" width="30" height="20" as="geometry" />
        </mxCell>
        <mxCell id="WAY5q-WWtIifcvpQ36K1-287" value="" style="rounded=0;whiteSpace=wrap;html=1;" vertex="1" parent="WAY5q-WWtIifcvpQ36K1-283">
          <mxGeometry x="40" width="10" height="20" as="geometry" />
        </mxCell>
        <mxCell id="WAY5q-WWtIifcvpQ36K1-288" value="" style="rounded=0;whiteSpace=wrap;html=1;" vertex="1" parent="WAY5q-WWtIifcvpQ36K1-283">
          <mxGeometry x="80" width="10" height="20" as="geometry" />
        </mxCell>
        <mxCell id="WAY5q-WWtIifcvpQ36K1-299" value="" style="group" vertex="1" connectable="0" parent="1">
          <mxGeometry x="560" y="530" width="90" height="20" as="geometry" />
        </mxCell>
        <mxCell id="WAY5q-WWtIifcvpQ36K1-300" value="" style="group" vertex="1" connectable="0" parent="WAY5q-WWtIifcvpQ36K1-299">
          <mxGeometry width="90" height="20" as="geometry" />
        </mxCell>
        <mxCell id="WAY5q-WWtIifcvpQ36K1-301" value="88" style="rounded=0;whiteSpace=wrap;html=1;" vertex="1" parent="WAY5q-WWtIifcvpQ36K1-300">
          <mxGeometry x="10" width="30" height="20" as="geometry" />
        </mxCell>
        <mxCell id="WAY5q-WWtIifcvpQ36K1-302" value="" style="rounded=0;whiteSpace=wrap;html=1;" vertex="1" parent="WAY5q-WWtIifcvpQ36K1-300">
          <mxGeometry width="10" height="20" as="geometry" />
        </mxCell>
        <mxCell id="WAY5q-WWtIifcvpQ36K1-303" value="" style="rounded=0;whiteSpace=wrap;html=1;" vertex="1" parent="WAY5q-WWtIifcvpQ36K1-300">
          <mxGeometry x="50" width="30" height="20" as="geometry" />
        </mxCell>
        <mxCell id="WAY5q-WWtIifcvpQ36K1-304" value="" style="rounded=0;whiteSpace=wrap;html=1;" vertex="1" parent="WAY5q-WWtIifcvpQ36K1-300">
          <mxGeometry x="40" width="10" height="20" as="geometry" />
        </mxCell>
        <mxCell id="WAY5q-WWtIifcvpQ36K1-305" value="" style="rounded=0;whiteSpace=wrap;html=1;" vertex="1" parent="WAY5q-WWtIifcvpQ36K1-300">
          <mxGeometry x="80" width="10" height="20" as="geometry" />
        </mxCell>
        <mxCell id="WAY5q-WWtIifcvpQ36K1-306" value="" style="endArrow=classic;html=1;edgeStyle=orthogonalEdgeStyle;rounded=0;" edge="1" parent="1">
          <mxGeometry width="50" height="50" relative="1" as="geometry">
            <mxPoint x="90" y="330" as="sourcePoint" />
            <mxPoint x="70" y="590" as="targetPoint" />
            <Array as="points">
              <mxPoint x="30" y="330" />
              <mxPoint x="30" y="590" />
            </Array>
          </mxGeometry>
        </mxCell>
        <mxCell id="WAY5q-WWtIifcvpQ36K1-307" value="insert 53" style="text;html=1;align=center;verticalAlign=middle;resizable=0;points=[];autosize=1;" vertex="1" parent="1">
          <mxGeometry x="40" y="460" width="60" height="20" as="geometry" />
        </mxCell>
        <mxCell id="WAY5q-WWtIifcvpQ36K1-179" value="" style="group" vertex="1" connectable="0" parent="1">
          <mxGeometry x="240" y="540" width="140" height="20" as="geometry" />
        </mxCell>
        <mxCell id="WAY5q-WWtIifcvpQ36K1-180" value="" style="group" vertex="1" connectable="0" parent="WAY5q-WWtIifcvpQ36K1-179">
          <mxGeometry width="140" height="20" as="geometry" />
        </mxCell>
        <mxCell id="WAY5q-WWtIifcvpQ36K1-181" value="" style="group" vertex="1" connectable="0" parent="WAY5q-WWtIifcvpQ36K1-180">
          <mxGeometry width="140" height="20" as="geometry" />
        </mxCell>
        <mxCell id="WAY5q-WWtIifcvpQ36K1-182" value="" style="group" vertex="1" connectable="0" parent="WAY5q-WWtIifcvpQ36K1-181">
          <mxGeometry x="10" width="90" height="20" as="geometry" />
        </mxCell>
        <mxCell id="WAY5q-WWtIifcvpQ36K1-183" value="80" style="rounded=0;whiteSpace=wrap;html=1;" vertex="1" parent="WAY5q-WWtIifcvpQ36K1-182">
          <mxGeometry x="10" width="30" height="20" as="geometry" />
        </mxCell>
        <mxCell id="WAY5q-WWtIifcvpQ36K1-184" value="" style="rounded=0;whiteSpace=wrap;html=1;" vertex="1" parent="WAY5q-WWtIifcvpQ36K1-182">
          <mxGeometry width="10" height="20" as="geometry" />
        </mxCell>
        <mxCell id="WAY5q-WWtIifcvpQ36K1-185" value="" style="rounded=0;whiteSpace=wrap;html=1;" vertex="1" parent="WAY5q-WWtIifcvpQ36K1-182">
          <mxGeometry x="50" width="30" height="20" as="geometry" />
        </mxCell>
        <mxCell id="WAY5q-WWtIifcvpQ36K1-186" value="" style="rounded=0;whiteSpace=wrap;html=1;" vertex="1" parent="WAY5q-WWtIifcvpQ36K1-182">
          <mxGeometry x="40" width="10" height="20" as="geometry" />
        </mxCell>
        <mxCell id="WAY5q-WWtIifcvpQ36K1-187" value="" style="rounded=0;whiteSpace=wrap;html=1;" vertex="1" parent="WAY5q-WWtIifcvpQ36K1-182">
          <mxGeometry x="80" width="10" height="20" as="geometry" />
        </mxCell>
        <mxCell id="WAY5q-WWtIifcvpQ36K1-323" value="" style="group" vertex="1" connectable="0" parent="1">
          <mxGeometry x="320" y="620" width="90" height="20" as="geometry" />
        </mxCell>
        <mxCell id="WAY5q-WWtIifcvpQ36K1-324" value="" style="group" vertex="1" connectable="0" parent="WAY5q-WWtIifcvpQ36K1-323">
          <mxGeometry width="90" height="20" as="geometry" />
        </mxCell>
        <mxCell id="WAY5q-WWtIifcvpQ36K1-325" value="80" style="rounded=0;whiteSpace=wrap;html=1;" vertex="1" parent="WAY5q-WWtIifcvpQ36K1-324">
          <mxGeometry x="10" width="30" height="20" as="geometry" />
        </mxCell>
        <mxCell id="WAY5q-WWtIifcvpQ36K1-326" value="" style="rounded=0;whiteSpace=wrap;html=1;" vertex="1" parent="WAY5q-WWtIifcvpQ36K1-324">
          <mxGeometry width="10" height="20" as="geometry" />
        </mxCell>
        <mxCell id="WAY5q-WWtIifcvpQ36K1-327" value="" style="rounded=0;whiteSpace=wrap;html=1;" vertex="1" parent="WAY5q-WWtIifcvpQ36K1-324">
          <mxGeometry x="50" width="30" height="20" as="geometry" />
        </mxCell>
        <mxCell id="WAY5q-WWtIifcvpQ36K1-328" value="" style="rounded=0;whiteSpace=wrap;html=1;" vertex="1" parent="WAY5q-WWtIifcvpQ36K1-324">
          <mxGeometry x="40" width="10" height="20" as="geometry" />
        </mxCell>
        <mxCell id="WAY5q-WWtIifcvpQ36K1-329" value="" style="rounded=0;whiteSpace=wrap;html=1;" vertex="1" parent="WAY5q-WWtIifcvpQ36K1-324">
          <mxGeometry x="80" width="10" height="20" as="geometry" />
        </mxCell>
        <mxCell id="WAY5q-WWtIifcvpQ36K1-216" value="" style="group" vertex="1" connectable="0" parent="1">
          <mxGeometry x="630" y="620" width="140" height="20" as="geometry" />
        </mxCell>
        <mxCell id="WAY5q-WWtIifcvpQ36K1-217" value="" style="group" vertex="1" connectable="0" parent="WAY5q-WWtIifcvpQ36K1-216">
          <mxGeometry width="140" height="20" as="geometry" />
        </mxCell>
        <mxCell id="WAY5q-WWtIifcvpQ36K1-218" value="" style="group" vertex="1" connectable="0" parent="WAY5q-WWtIifcvpQ36K1-217">
          <mxGeometry width="140" height="20" as="geometry" />
        </mxCell>
        <mxCell id="WAY5q-WWtIifcvpQ36K1-219" value="" style="group" vertex="1" connectable="0" parent="WAY5q-WWtIifcvpQ36K1-218">
          <mxGeometry x="10" width="90" height="20" as="geometry" />
        </mxCell>
        <mxCell id="WAY5q-WWtIifcvpQ36K1-220" value="88" style="rounded=0;whiteSpace=wrap;html=1;" vertex="1" parent="WAY5q-WWtIifcvpQ36K1-219">
          <mxGeometry x="10" width="30" height="20" as="geometry" />
        </mxCell>
        <mxCell id="WAY5q-WWtIifcvpQ36K1-221" value="" style="rounded=0;whiteSpace=wrap;html=1;" vertex="1" parent="WAY5q-WWtIifcvpQ36K1-219">
          <mxGeometry width="10" height="20" as="geometry" />
        </mxCell>
        <mxCell id="WAY5q-WWtIifcvpQ36K1-222" value="" style="rounded=0;whiteSpace=wrap;html=1;" vertex="1" parent="WAY5q-WWtIifcvpQ36K1-219">
          <mxGeometry x="50" width="30" height="20" as="geometry" />
        </mxCell>
        <mxCell id="WAY5q-WWtIifcvpQ36K1-223" value="" style="rounded=0;whiteSpace=wrap;html=1;" vertex="1" parent="WAY5q-WWtIifcvpQ36K1-219">
          <mxGeometry x="40" width="10" height="20" as="geometry" />
        </mxCell>
        <mxCell id="WAY5q-WWtIifcvpQ36K1-224" value="" style="rounded=0;whiteSpace=wrap;html=1;" vertex="1" parent="WAY5q-WWtIifcvpQ36K1-219">
          <mxGeometry x="80" width="10" height="20" as="geometry" />
        </mxCell>
        <mxCell id="WAY5q-WWtIifcvpQ36K1-333" style="rounded=0;orthogonalLoop=1;jettySize=auto;html=1;exitX=0.5;exitY=1;exitDx=0;exitDy=0;entryX=0.25;entryY=0;entryDx=0;entryDy=0;" edge="1" parent="1" source="WAY5q-WWtIifcvpQ36K1-186" target="WAY5q-WWtIifcvpQ36K1-328">
          <mxGeometry relative="1" as="geometry" />
        </mxCell>
        <mxCell id="WAY5q-WWtIifcvpQ36K1-334" style="edgeStyle=none;rounded=0;orthogonalLoop=1;jettySize=auto;html=1;exitX=0;exitY=0.75;exitDx=0;exitDy=0;entryX=1;entryY=0;entryDx=0;entryDy=0;" edge="1" parent="1" source="WAY5q-WWtIifcvpQ36K1-285" target="WAY5q-WWtIifcvpQ36K1-183">
          <mxGeometry relative="1" as="geometry" />
        </mxCell>
        <mxCell id="WAY5q-WWtIifcvpQ36K1-335" style="edgeStyle=none;rounded=0;orthogonalLoop=1;jettySize=auto;html=1;exitX=0.5;exitY=1;exitDx=0;exitDy=0;entryX=1;entryY=0;entryDx=0;entryDy=0;" edge="1" parent="1" source="WAY5q-WWtIifcvpQ36K1-287" target="WAY5q-WWtIifcvpQ36K1-301">
          <mxGeometry relative="1" as="geometry" />
        </mxCell>
        <mxCell id="WAY5q-WWtIifcvpQ36K1-407" value="" style="group" vertex="1" connectable="0" parent="1">
          <mxGeometry x="284" y="830" width="276" height="110" as="geometry" />
        </mxCell>
        <mxCell id="WAY5q-WWtIifcvpQ36K1-408" value="" style="group" vertex="1" connectable="0" parent="WAY5q-WWtIifcvpQ36K1-407">
          <mxGeometry width="276" height="110" as="geometry" />
        </mxCell>
        <mxCell id="WAY5q-WWtIifcvpQ36K1-409" value="" style="group" vertex="1" connectable="0" parent="WAY5q-WWtIifcvpQ36K1-408">
          <mxGeometry width="276" height="110" as="geometry" />
        </mxCell>
        <mxCell id="WAY5q-WWtIifcvpQ36K1-410" value="" style="group" vertex="1" connectable="0" parent="WAY5q-WWtIifcvpQ36K1-409">
          <mxGeometry width="140" height="20" as="geometry" />
        </mxCell>
        <mxCell id="WAY5q-WWtIifcvpQ36K1-481" value="" style="group" vertex="1" connectable="0" parent="WAY5q-WWtIifcvpQ36K1-409">
          <mxGeometry x="96" width="220" height="110" as="geometry" />
        </mxCell>
        <mxCell id="WAY5q-WWtIifcvpQ36K1-465" value="" style="group" vertex="1" connectable="0" parent="WAY5q-WWtIifcvpQ36K1-481">
          <mxGeometry x="80" y="90" width="140" height="20" as="geometry" />
        </mxCell>
        <mxCell id="WAY5q-WWtIifcvpQ36K1-466" value="" style="group" vertex="1" connectable="0" parent="WAY5q-WWtIifcvpQ36K1-465">
          <mxGeometry width="140" height="20" as="geometry" />
        </mxCell>
        <mxCell id="WAY5q-WWtIifcvpQ36K1-467" value="" style="group" vertex="1" connectable="0" parent="WAY5q-WWtIifcvpQ36K1-466">
          <mxGeometry width="140" height="20" as="geometry" />
        </mxCell>
        <mxCell id="WAY5q-WWtIifcvpQ36K1-468" value="" style="group" vertex="1" connectable="0" parent="WAY5q-WWtIifcvpQ36K1-467">
          <mxGeometry x="10" width="90" height="20" as="geometry" />
        </mxCell>
        <mxCell id="WAY5q-WWtIifcvpQ36K1-469" value="80" style="rounded=0;whiteSpace=wrap;html=1;" vertex="1" parent="WAY5q-WWtIifcvpQ36K1-468">
          <mxGeometry x="10" width="30" height="20" as="geometry" />
        </mxCell>
        <mxCell id="WAY5q-WWtIifcvpQ36K1-470" value="" style="rounded=0;whiteSpace=wrap;html=1;" vertex="1" parent="WAY5q-WWtIifcvpQ36K1-468">
          <mxGeometry width="10" height="20" as="geometry" />
        </mxCell>
        <mxCell id="WAY5q-WWtIifcvpQ36K1-471" value="" style="rounded=0;whiteSpace=wrap;html=1;" vertex="1" parent="WAY5q-WWtIifcvpQ36K1-468">
          <mxGeometry x="50" width="30" height="20" as="geometry" />
        </mxCell>
        <mxCell id="WAY5q-WWtIifcvpQ36K1-472" value="" style="rounded=0;whiteSpace=wrap;html=1;" vertex="1" parent="WAY5q-WWtIifcvpQ36K1-468">
          <mxGeometry x="40" width="10" height="20" as="geometry" />
        </mxCell>
        <mxCell id="WAY5q-WWtIifcvpQ36K1-473" value="" style="rounded=0;whiteSpace=wrap;html=1;" vertex="1" parent="WAY5q-WWtIifcvpQ36K1-468">
          <mxGeometry x="80" width="10" height="20" as="geometry" />
        </mxCell>
        <mxCell id="WAY5q-WWtIifcvpQ36K1-480" value="" style="group" vertex="1" connectable="0" parent="WAY5q-WWtIifcvpQ36K1-481">
          <mxGeometry width="140" height="110" as="geometry" />
        </mxCell>
        <mxCell id="WAY5q-WWtIifcvpQ36K1-421" value="" style="group" vertex="1" connectable="0" parent="WAY5q-WWtIifcvpQ36K1-480">
          <mxGeometry y="90" width="140" height="20" as="geometry" />
        </mxCell>
        <mxCell id="WAY5q-WWtIifcvpQ36K1-422" value="" style="group" vertex="1" connectable="0" parent="WAY5q-WWtIifcvpQ36K1-421">
          <mxGeometry width="140" height="20" as="geometry" />
        </mxCell>
        <mxCell id="WAY5q-WWtIifcvpQ36K1-423" value="" style="group" vertex="1" connectable="0" parent="WAY5q-WWtIifcvpQ36K1-421">
          <mxGeometry x="-65" width="140" height="20" as="geometry" />
        </mxCell>
        <mxCell id="WAY5q-WWtIifcvpQ36K1-424" value="" style="group" vertex="1" connectable="0" parent="WAY5q-WWtIifcvpQ36K1-423">
          <mxGeometry width="140" height="20" as="geometry" />
        </mxCell>
        <mxCell id="WAY5q-WWtIifcvpQ36K1-425" value="" style="group" vertex="1" connectable="0" parent="WAY5q-WWtIifcvpQ36K1-424">
          <mxGeometry width="140" height="20" as="geometry" />
        </mxCell>
        <mxCell id="WAY5q-WWtIifcvpQ36K1-426" value="" style="group" vertex="1" connectable="0" parent="WAY5q-WWtIifcvpQ36K1-425">
          <mxGeometry x="10" width="90" height="20" as="geometry" />
        </mxCell>
        <mxCell id="WAY5q-WWtIifcvpQ36K1-427" value="77" style="rounded=0;whiteSpace=wrap;html=1;" vertex="1" parent="WAY5q-WWtIifcvpQ36K1-426">
          <mxGeometry x="10" width="30" height="20" as="geometry" />
        </mxCell>
        <mxCell id="WAY5q-WWtIifcvpQ36K1-428" value="" style="rounded=0;whiteSpace=wrap;html=1;" vertex="1" parent="WAY5q-WWtIifcvpQ36K1-426">
          <mxGeometry width="10" height="20" as="geometry" />
        </mxCell>
        <mxCell id="WAY5q-WWtIifcvpQ36K1-429" value="" style="rounded=0;whiteSpace=wrap;html=1;" vertex="1" parent="WAY5q-WWtIifcvpQ36K1-426">
          <mxGeometry x="50" width="30" height="20" as="geometry" />
        </mxCell>
        <mxCell id="WAY5q-WWtIifcvpQ36K1-430" value="" style="rounded=0;whiteSpace=wrap;html=1;" vertex="1" parent="WAY5q-WWtIifcvpQ36K1-426">
          <mxGeometry x="40" width="10" height="20" as="geometry" />
        </mxCell>
        <mxCell id="WAY5q-WWtIifcvpQ36K1-431" value="" style="rounded=0;whiteSpace=wrap;html=1;" vertex="1" parent="WAY5q-WWtIifcvpQ36K1-426">
          <mxGeometry x="80" width="10" height="20" as="geometry" />
        </mxCell>
        <mxCell id="WAY5q-WWtIifcvpQ36K1-433" style="edgeStyle=none;rounded=0;orthogonalLoop=1;jettySize=auto;html=1;exitX=0;exitY=0.5;exitDx=0;exitDy=0;entryX=0.5;entryY=0;entryDx=0;entryDy=0;" edge="1" parent="WAY5q-WWtIifcvpQ36K1-480" source="WAY5q-WWtIifcvpQ36K1-445" target="WAY5q-WWtIifcvpQ36K1-430">
          <mxGeometry relative="1" as="geometry" />
        </mxCell>
        <mxCell id="WAY5q-WWtIifcvpQ36K1-442" value="" style="group" vertex="1" connectable="0" parent="WAY5q-WWtIifcvpQ36K1-480">
          <mxGeometry x="10" width="90" height="20" as="geometry" />
        </mxCell>
        <mxCell id="WAY5q-WWtIifcvpQ36K1-443" value="" style="group" vertex="1" connectable="0" parent="WAY5q-WWtIifcvpQ36K1-442">
          <mxGeometry width="90" height="20" as="geometry" />
        </mxCell>
        <mxCell id="WAY5q-WWtIifcvpQ36K1-444" value="80" style="rounded=0;whiteSpace=wrap;html=1;" vertex="1" parent="WAY5q-WWtIifcvpQ36K1-443">
          <mxGeometry x="10" width="30" height="20" as="geometry" />
        </mxCell>
        <mxCell id="WAY5q-WWtIifcvpQ36K1-445" value="" style="rounded=0;whiteSpace=wrap;html=1;" vertex="1" parent="WAY5q-WWtIifcvpQ36K1-443">
          <mxGeometry width="10" height="20" as="geometry" />
        </mxCell>
        <mxCell id="WAY5q-WWtIifcvpQ36K1-446" value="" style="rounded=0;whiteSpace=wrap;html=1;" vertex="1" parent="WAY5q-WWtIifcvpQ36K1-443">
          <mxGeometry x="50" width="30" height="20" as="geometry" />
        </mxCell>
        <mxCell id="WAY5q-WWtIifcvpQ36K1-447" value="" style="rounded=0;whiteSpace=wrap;html=1;" vertex="1" parent="WAY5q-WWtIifcvpQ36K1-443">
          <mxGeometry x="40" width="10" height="20" as="geometry" />
        </mxCell>
        <mxCell id="WAY5q-WWtIifcvpQ36K1-448" value="" style="rounded=0;whiteSpace=wrap;html=1;" vertex="1" parent="WAY5q-WWtIifcvpQ36K1-443">
          <mxGeometry x="80" width="10" height="20" as="geometry" />
        </mxCell>
        <mxCell id="WAY5q-WWtIifcvpQ36K1-434" style="edgeStyle=none;rounded=0;orthogonalLoop=1;jettySize=auto;html=1;exitX=1;exitY=0.5;exitDx=0;exitDy=0;entryX=1;entryY=0;entryDx=0;entryDy=0;" edge="1" parent="WAY5q-WWtIifcvpQ36K1-481" source="WAY5q-WWtIifcvpQ36K1-447" target="WAY5q-WWtIifcvpQ36K1-469">
          <mxGeometry relative="1" as="geometry" />
        </mxCell>
        <mxCell id="WAY5q-WWtIifcvpQ36K1-837" style="edgeStyle=none;rounded=0;orthogonalLoop=1;jettySize=auto;html=1;exitX=1;exitY=0.5;exitDx=0;exitDy=0;entryX=0;entryY=0.5;entryDx=0;entryDy=0;" edge="1" parent="WAY5q-WWtIifcvpQ36K1-481" source="WAY5q-WWtIifcvpQ36K1-431" target="WAY5q-WWtIifcvpQ36K1-470">
          <mxGeometry relative="1" as="geometry" />
        </mxCell>
        <mxCell id="WAY5q-WWtIifcvpQ36K1-420" value="" style="group" vertex="1" connectable="0" parent="1">
          <mxGeometry x="284" y="920" width="140" height="20" as="geometry" />
        </mxCell>
        <mxCell id="WAY5q-WWtIifcvpQ36K1-435" value="" style="group" vertex="1" connectable="0" parent="1">
          <mxGeometry x="334" y="760" width="90" height="20" as="geometry" />
        </mxCell>
        <mxCell id="WAY5q-WWtIifcvpQ36K1-436" value="" style="group" vertex="1" connectable="0" parent="WAY5q-WWtIifcvpQ36K1-435">
          <mxGeometry width="90" height="20" as="geometry" />
        </mxCell>
        <mxCell id="WAY5q-WWtIifcvpQ36K1-437" value="77" style="rounded=0;whiteSpace=wrap;html=1;" vertex="1" parent="WAY5q-WWtIifcvpQ36K1-436">
          <mxGeometry x="10" width="30" height="20" as="geometry" />
        </mxCell>
        <mxCell id="WAY5q-WWtIifcvpQ36K1-438" value="" style="rounded=0;whiteSpace=wrap;html=1;" vertex="1" parent="WAY5q-WWtIifcvpQ36K1-436">
          <mxGeometry width="10" height="20" as="geometry" />
        </mxCell>
        <mxCell id="WAY5q-WWtIifcvpQ36K1-439" value="85" style="rounded=0;whiteSpace=wrap;html=1;" vertex="1" parent="WAY5q-WWtIifcvpQ36K1-436">
          <mxGeometry x="50" width="30" height="20" as="geometry" />
        </mxCell>
        <mxCell id="WAY5q-WWtIifcvpQ36K1-440" value="" style="rounded=0;whiteSpace=wrap;html=1;" vertex="1" parent="WAY5q-WWtIifcvpQ36K1-436">
          <mxGeometry x="40" width="10" height="20" as="geometry" />
        </mxCell>
        <mxCell id="WAY5q-WWtIifcvpQ36K1-441" value="" style="rounded=0;whiteSpace=wrap;html=1;" vertex="1" parent="WAY5q-WWtIifcvpQ36K1-436">
          <mxGeometry x="80" width="10" height="20" as="geometry" />
        </mxCell>
        <mxCell id="WAY5q-WWtIifcvpQ36K1-475" style="edgeStyle=none;rounded=0;orthogonalLoop=1;jettySize=auto;html=1;exitX=0;exitY=0.75;exitDx=0;exitDy=0;entryX=1;entryY=0;entryDx=0;entryDy=0;" edge="1" parent="1" source="WAY5q-WWtIifcvpQ36K1-438" target="WAY5q-WWtIifcvpQ36K1-453">
          <mxGeometry relative="1" as="geometry" />
        </mxCell>
        <mxCell id="WAY5q-WWtIifcvpQ36K1-476" style="edgeStyle=none;rounded=0;orthogonalLoop=1;jettySize=auto;html=1;exitX=0.5;exitY=1;exitDx=0;exitDy=0;entryX=1;entryY=0;entryDx=0;entryDy=0;" edge="1" parent="1" source="WAY5q-WWtIifcvpQ36K1-440" target="WAY5q-WWtIifcvpQ36K1-444">
          <mxGeometry relative="1" as="geometry" />
        </mxCell>
        <mxCell id="WAY5q-WWtIifcvpQ36K1-477" value="" style="endArrow=classic;html=1;edgeStyle=orthogonalEdgeStyle;rounded=0;" edge="1" parent="1">
          <mxGeometry width="50" height="50" relative="1" as="geometry">
            <mxPoint x="760" y="560" as="sourcePoint" />
            <mxPoint x="810" y="890" as="targetPoint" />
            <Array as="points">
              <mxPoint x="840" y="560" />
              <mxPoint x="840" y="890" />
            </Array>
          </mxGeometry>
        </mxCell>
        <mxCell id="WAY5q-WWtIifcvpQ36K1-484" value="" style="group" vertex="1" connectable="0" parent="1">
          <mxGeometry x="535" y="830" width="276" height="110" as="geometry" />
        </mxCell>
        <mxCell id="WAY5q-WWtIifcvpQ36K1-485" value="" style="group" vertex="1" connectable="0" parent="WAY5q-WWtIifcvpQ36K1-484">
          <mxGeometry width="276" height="110" as="geometry" />
        </mxCell>
        <mxCell id="WAY5q-WWtIifcvpQ36K1-486" value="" style="group" vertex="1" connectable="0" parent="WAY5q-WWtIifcvpQ36K1-485">
          <mxGeometry width="276" height="110" as="geometry" />
        </mxCell>
        <mxCell id="WAY5q-WWtIifcvpQ36K1-487" value="" style="group" vertex="1" connectable="0" parent="WAY5q-WWtIifcvpQ36K1-486">
          <mxGeometry width="140" height="20" as="geometry" />
        </mxCell>
        <mxCell id="WAY5q-WWtIifcvpQ36K1-488" value="" style="group" vertex="1" connectable="0" parent="WAY5q-WWtIifcvpQ36K1-486">
          <mxGeometry x="96" width="220" height="110" as="geometry" />
        </mxCell>
        <mxCell id="WAY5q-WWtIifcvpQ36K1-489" value="" style="group" vertex="1" connectable="0" parent="WAY5q-WWtIifcvpQ36K1-488">
          <mxGeometry x="80" y="90" width="140" height="20" as="geometry" />
        </mxCell>
        <mxCell id="WAY5q-WWtIifcvpQ36K1-490" value="" style="group" vertex="1" connectable="0" parent="WAY5q-WWtIifcvpQ36K1-489">
          <mxGeometry width="140" height="20" as="geometry" />
        </mxCell>
        <mxCell id="WAY5q-WWtIifcvpQ36K1-491" value="" style="group" vertex="1" connectable="0" parent="WAY5q-WWtIifcvpQ36K1-490">
          <mxGeometry width="140" height="20" as="geometry" />
        </mxCell>
        <mxCell id="WAY5q-WWtIifcvpQ36K1-492" value="" style="group" vertex="1" connectable="0" parent="WAY5q-WWtIifcvpQ36K1-491">
          <mxGeometry x="10" width="90" height="20" as="geometry" />
        </mxCell>
        <mxCell id="WAY5q-WWtIifcvpQ36K1-493" value="88" style="rounded=0;whiteSpace=wrap;html=1;" vertex="1" parent="WAY5q-WWtIifcvpQ36K1-492">
          <mxGeometry x="10" width="30" height="20" as="geometry" />
        </mxCell>
        <mxCell id="WAY5q-WWtIifcvpQ36K1-494" value="" style="rounded=0;whiteSpace=wrap;html=1;" vertex="1" parent="WAY5q-WWtIifcvpQ36K1-492">
          <mxGeometry width="10" height="20" as="geometry" />
        </mxCell>
        <mxCell id="WAY5q-WWtIifcvpQ36K1-495" value="" style="rounded=0;whiteSpace=wrap;html=1;" vertex="1" parent="WAY5q-WWtIifcvpQ36K1-492">
          <mxGeometry x="50" width="30" height="20" as="geometry" />
        </mxCell>
        <mxCell id="WAY5q-WWtIifcvpQ36K1-496" value="" style="rounded=0;whiteSpace=wrap;html=1;" vertex="1" parent="WAY5q-WWtIifcvpQ36K1-492">
          <mxGeometry x="40" width="10" height="20" as="geometry" />
        </mxCell>
        <mxCell id="WAY5q-WWtIifcvpQ36K1-497" value="" style="rounded=0;whiteSpace=wrap;html=1;" vertex="1" parent="WAY5q-WWtIifcvpQ36K1-492">
          <mxGeometry x="80" width="10" height="20" as="geometry" />
        </mxCell>
        <mxCell id="WAY5q-WWtIifcvpQ36K1-498" value="" style="group" vertex="1" connectable="0" parent="WAY5q-WWtIifcvpQ36K1-488">
          <mxGeometry width="140" height="110" as="geometry" />
        </mxCell>
        <mxCell id="WAY5q-WWtIifcvpQ36K1-499" value="" style="group" vertex="1" connectable="0" parent="WAY5q-WWtIifcvpQ36K1-498">
          <mxGeometry y="90" width="140" height="20" as="geometry" />
        </mxCell>
        <mxCell id="WAY5q-WWtIifcvpQ36K1-500" value="" style="group" vertex="1" connectable="0" parent="WAY5q-WWtIifcvpQ36K1-499">
          <mxGeometry width="140" height="20" as="geometry" />
        </mxCell>
        <mxCell id="WAY5q-WWtIifcvpQ36K1-501" value="" style="group" vertex="1" connectable="0" parent="WAY5q-WWtIifcvpQ36K1-499">
          <mxGeometry x="-65" width="140" height="20" as="geometry" />
        </mxCell>
        <mxCell id="WAY5q-WWtIifcvpQ36K1-502" value="" style="group" vertex="1" connectable="0" parent="WAY5q-WWtIifcvpQ36K1-501">
          <mxGeometry width="140" height="20" as="geometry" />
        </mxCell>
        <mxCell id="WAY5q-WWtIifcvpQ36K1-503" value="" style="group" vertex="1" connectable="0" parent="WAY5q-WWtIifcvpQ36K1-502">
          <mxGeometry width="140" height="20" as="geometry" />
        </mxCell>
        <mxCell id="WAY5q-WWtIifcvpQ36K1-504" value="" style="group" vertex="1" connectable="0" parent="WAY5q-WWtIifcvpQ36K1-503">
          <mxGeometry x="10" width="90" height="20" as="geometry" />
        </mxCell>
        <mxCell id="WAY5q-WWtIifcvpQ36K1-505" value="85" style="rounded=0;whiteSpace=wrap;html=1;" vertex="1" parent="WAY5q-WWtIifcvpQ36K1-504">
          <mxGeometry x="10" width="30" height="20" as="geometry" />
        </mxCell>
        <mxCell id="WAY5q-WWtIifcvpQ36K1-506" value="" style="rounded=0;whiteSpace=wrap;html=1;" vertex="1" parent="WAY5q-WWtIifcvpQ36K1-504">
          <mxGeometry width="10" height="20" as="geometry" />
        </mxCell>
        <mxCell id="WAY5q-WWtIifcvpQ36K1-507" value="" style="rounded=0;whiteSpace=wrap;html=1;" vertex="1" parent="WAY5q-WWtIifcvpQ36K1-504">
          <mxGeometry x="50" width="30" height="20" as="geometry" />
        </mxCell>
        <mxCell id="WAY5q-WWtIifcvpQ36K1-508" value="" style="rounded=0;whiteSpace=wrap;html=1;" vertex="1" parent="WAY5q-WWtIifcvpQ36K1-504">
          <mxGeometry x="40" width="10" height="20" as="geometry" />
        </mxCell>
        <mxCell id="WAY5q-WWtIifcvpQ36K1-509" value="" style="rounded=0;whiteSpace=wrap;html=1;" vertex="1" parent="WAY5q-WWtIifcvpQ36K1-504">
          <mxGeometry x="80" width="10" height="20" as="geometry" />
        </mxCell>
        <mxCell id="WAY5q-WWtIifcvpQ36K1-510" style="edgeStyle=none;rounded=0;orthogonalLoop=1;jettySize=auto;html=1;exitX=0;exitY=0.5;exitDx=0;exitDy=0;entryX=0.5;entryY=0;entryDx=0;entryDy=0;" edge="1" parent="WAY5q-WWtIifcvpQ36K1-498" source="WAY5q-WWtIifcvpQ36K1-514" target="WAY5q-WWtIifcvpQ36K1-508">
          <mxGeometry relative="1" as="geometry" />
        </mxCell>
        <mxCell id="WAY5q-WWtIifcvpQ36K1-511" value="" style="group" vertex="1" connectable="0" parent="WAY5q-WWtIifcvpQ36K1-498">
          <mxGeometry x="10" width="90" height="20" as="geometry" />
        </mxCell>
        <mxCell id="WAY5q-WWtIifcvpQ36K1-512" value="" style="group" vertex="1" connectable="0" parent="WAY5q-WWtIifcvpQ36K1-511">
          <mxGeometry width="90" height="20" as="geometry" />
        </mxCell>
        <mxCell id="WAY5q-WWtIifcvpQ36K1-513" value="88" style="rounded=0;whiteSpace=wrap;html=1;" vertex="1" parent="WAY5q-WWtIifcvpQ36K1-512">
          <mxGeometry x="10" width="30" height="20" as="geometry" />
        </mxCell>
        <mxCell id="WAY5q-WWtIifcvpQ36K1-514" value="" style="rounded=0;whiteSpace=wrap;html=1;" vertex="1" parent="WAY5q-WWtIifcvpQ36K1-512">
          <mxGeometry width="10" height="20" as="geometry" />
        </mxCell>
        <mxCell id="WAY5q-WWtIifcvpQ36K1-515" value="" style="rounded=0;whiteSpace=wrap;html=1;" vertex="1" parent="WAY5q-WWtIifcvpQ36K1-512">
          <mxGeometry x="50" width="30" height="20" as="geometry" />
        </mxCell>
        <mxCell id="WAY5q-WWtIifcvpQ36K1-516" value="" style="rounded=0;whiteSpace=wrap;html=1;" vertex="1" parent="WAY5q-WWtIifcvpQ36K1-512">
          <mxGeometry x="40" width="10" height="20" as="geometry" />
        </mxCell>
        <mxCell id="WAY5q-WWtIifcvpQ36K1-517" value="" style="rounded=0;whiteSpace=wrap;html=1;" vertex="1" parent="WAY5q-WWtIifcvpQ36K1-512">
          <mxGeometry x="80" width="10" height="20" as="geometry" />
        </mxCell>
        <mxCell id="WAY5q-WWtIifcvpQ36K1-518" style="edgeStyle=none;rounded=0;orthogonalLoop=1;jettySize=auto;html=1;exitX=1;exitY=0.5;exitDx=0;exitDy=0;entryX=1;entryY=0;entryDx=0;entryDy=0;" edge="1" parent="WAY5q-WWtIifcvpQ36K1-488" source="WAY5q-WWtIifcvpQ36K1-516" target="WAY5q-WWtIifcvpQ36K1-493">
          <mxGeometry relative="1" as="geometry" />
        </mxCell>
        <mxCell id="WAY5q-WWtIifcvpQ36K1-839" style="edgeStyle=none;rounded=0;orthogonalLoop=1;jettySize=auto;html=1;exitX=1;exitY=0.5;exitDx=0;exitDy=0;entryX=0;entryY=0.5;entryDx=0;entryDy=0;" edge="1" parent="WAY5q-WWtIifcvpQ36K1-488" source="WAY5q-WWtIifcvpQ36K1-509" target="WAY5q-WWtIifcvpQ36K1-494">
          <mxGeometry relative="1" as="geometry" />
        </mxCell>
        <mxCell id="WAY5q-WWtIifcvpQ36K1-521" style="edgeStyle=none;rounded=0;orthogonalLoop=1;jettySize=auto;html=1;exitX=1;exitY=0.5;exitDx=0;exitDy=0;entryX=1;entryY=0;entryDx=0;entryDy=0;" edge="1" parent="1" source="WAY5q-WWtIifcvpQ36K1-441" target="WAY5q-WWtIifcvpQ36K1-516">
          <mxGeometry relative="1" as="geometry" />
        </mxCell>
        <mxCell id="WAY5q-WWtIifcvpQ36K1-432" style="rounded=0;orthogonalLoop=1;jettySize=auto;html=1;exitX=0;exitY=0.5;exitDx=0;exitDy=0;entryX=0.5;entryY=0;entryDx=0;entryDy=0;" edge="1" parent="1" source="WAY5q-WWtIifcvpQ36K1-454" target="WAY5q-WWtIifcvpQ36K1-418">
          <mxGeometry relative="1" as="geometry" />
        </mxCell>
        <mxCell id="WAY5q-WWtIifcvpQ36K1-449" value="" style="group" vertex="1" connectable="0" parent="1">
          <mxGeometry x="140" y="840" width="140" height="20" as="geometry" />
        </mxCell>
        <mxCell id="WAY5q-WWtIifcvpQ36K1-450" value="" style="group" vertex="1" connectable="0" parent="WAY5q-WWtIifcvpQ36K1-449">
          <mxGeometry width="140" height="20" as="geometry" />
        </mxCell>
        <mxCell id="WAY5q-WWtIifcvpQ36K1-451" value="" style="group" vertex="1" connectable="0" parent="WAY5q-WWtIifcvpQ36K1-450">
          <mxGeometry width="140" height="20" as="geometry" />
        </mxCell>
        <mxCell id="WAY5q-WWtIifcvpQ36K1-452" value="" style="group" vertex="1" connectable="0" parent="WAY5q-WWtIifcvpQ36K1-451">
          <mxGeometry x="10" width="90" height="20" as="geometry" />
        </mxCell>
        <mxCell id="WAY5q-WWtIifcvpQ36K1-453" value="51" style="rounded=0;whiteSpace=wrap;html=1;" vertex="1" parent="WAY5q-WWtIifcvpQ36K1-452">
          <mxGeometry x="10" width="30" height="20" as="geometry" />
        </mxCell>
        <mxCell id="WAY5q-WWtIifcvpQ36K1-454" value="" style="rounded=0;whiteSpace=wrap;html=1;" vertex="1" parent="WAY5q-WWtIifcvpQ36K1-452">
          <mxGeometry width="10" height="20" as="geometry" />
        </mxCell>
        <mxCell id="WAY5q-WWtIifcvpQ36K1-455" value="53" style="rounded=0;whiteSpace=wrap;html=1;" vertex="1" parent="WAY5q-WWtIifcvpQ36K1-452">
          <mxGeometry x="50" width="30" height="20" as="geometry" />
        </mxCell>
        <mxCell id="WAY5q-WWtIifcvpQ36K1-456" value="" style="rounded=0;whiteSpace=wrap;html=1;" vertex="1" parent="WAY5q-WWtIifcvpQ36K1-452">
          <mxGeometry x="40" width="10" height="20" as="geometry" />
        </mxCell>
        <mxCell id="WAY5q-WWtIifcvpQ36K1-457" value="" style="rounded=0;whiteSpace=wrap;html=1;" vertex="1" parent="WAY5q-WWtIifcvpQ36K1-452">
          <mxGeometry x="80" width="10" height="20" as="geometry" />
        </mxCell>
        <mxCell id="WAY5q-WWtIifcvpQ36K1-458" value="" style="group" vertex="1" connectable="0" parent="1">
          <mxGeometry x="220" y="920" width="90" height="20" as="geometry" />
        </mxCell>
        <mxCell id="WAY5q-WWtIifcvpQ36K1-459" value="" style="group" vertex="1" connectable="0" parent="WAY5q-WWtIifcvpQ36K1-458">
          <mxGeometry width="90" height="20" as="geometry" />
        </mxCell>
        <mxCell id="WAY5q-WWtIifcvpQ36K1-460" value="53" style="rounded=0;whiteSpace=wrap;html=1;" vertex="1" parent="WAY5q-WWtIifcvpQ36K1-459">
          <mxGeometry x="10" width="30" height="20" as="geometry" />
        </mxCell>
        <mxCell id="WAY5q-WWtIifcvpQ36K1-461" value="" style="rounded=0;whiteSpace=wrap;html=1;" vertex="1" parent="WAY5q-WWtIifcvpQ36K1-459">
          <mxGeometry width="10" height="20" as="geometry" />
        </mxCell>
        <mxCell id="WAY5q-WWtIifcvpQ36K1-462" value="" style="rounded=0;whiteSpace=wrap;html=1;" vertex="1" parent="WAY5q-WWtIifcvpQ36K1-459">
          <mxGeometry x="50" width="30" height="20" as="geometry" />
        </mxCell>
        <mxCell id="WAY5q-WWtIifcvpQ36K1-463" value="" style="rounded=0;whiteSpace=wrap;html=1;" vertex="1" parent="WAY5q-WWtIifcvpQ36K1-459">
          <mxGeometry x="40" width="10" height="20" as="geometry" />
        </mxCell>
        <mxCell id="WAY5q-WWtIifcvpQ36K1-464" value="" style="rounded=0;whiteSpace=wrap;html=1;" vertex="1" parent="WAY5q-WWtIifcvpQ36K1-459">
          <mxGeometry x="80" width="10" height="20" as="geometry" />
        </mxCell>
        <mxCell id="WAY5q-WWtIifcvpQ36K1-474" style="rounded=0;orthogonalLoop=1;jettySize=auto;html=1;exitX=0.75;exitY=1;exitDx=0;exitDy=0;entryX=0.25;entryY=0;entryDx=0;entryDy=0;" edge="1" parent="1" source="WAY5q-WWtIifcvpQ36K1-457" target="WAY5q-WWtIifcvpQ36K1-463">
          <mxGeometry relative="1" as="geometry" />
        </mxCell>
        <mxCell id="WAY5q-WWtIifcvpQ36K1-535" style="edgeStyle=none;rounded=0;orthogonalLoop=1;jettySize=auto;html=1;exitX=1;exitY=0.75;exitDx=0;exitDy=0;entryX=0;entryY=0.25;entryDx=0;entryDy=0;" edge="1" parent="1" source="WAY5q-WWtIifcvpQ36K1-456" target="WAY5q-WWtIifcvpQ36K1-531">
          <mxGeometry relative="1" as="geometry" />
        </mxCell>
        <mxCell id="WAY5q-WWtIifcvpQ36K1-533" value="" style="group" vertex="1" connectable="0" parent="1">
          <mxGeometry x="20" y="920" width="90" height="20" as="geometry" />
        </mxCell>
        <mxCell id="WAY5q-WWtIifcvpQ36K1-414" value="" style="group" vertex="1" connectable="0" parent="WAY5q-WWtIifcvpQ36K1-533">
          <mxGeometry width="90" height="20" as="geometry" />
        </mxCell>
        <mxCell id="WAY5q-WWtIifcvpQ36K1-415" value="36" style="rounded=0;whiteSpace=wrap;html=1;" vertex="1" parent="WAY5q-WWtIifcvpQ36K1-414">
          <mxGeometry x="10" width="30" height="20" as="geometry" />
        </mxCell>
        <mxCell id="WAY5q-WWtIifcvpQ36K1-416" value="" style="rounded=0;whiteSpace=wrap;html=1;" vertex="1" parent="WAY5q-WWtIifcvpQ36K1-414">
          <mxGeometry width="10" height="20" as="geometry" />
        </mxCell>
        <mxCell id="WAY5q-WWtIifcvpQ36K1-417" value="41" style="rounded=0;whiteSpace=wrap;html=1;" vertex="1" parent="WAY5q-WWtIifcvpQ36K1-414">
          <mxGeometry x="50" width="30" height="20" as="geometry" />
        </mxCell>
        <mxCell id="WAY5q-WWtIifcvpQ36K1-418" value="" style="rounded=0;whiteSpace=wrap;html=1;" vertex="1" parent="WAY5q-WWtIifcvpQ36K1-414">
          <mxGeometry x="40" width="10" height="20" as="geometry" />
        </mxCell>
        <mxCell id="WAY5q-WWtIifcvpQ36K1-419" value="" style="rounded=0;whiteSpace=wrap;html=1;" vertex="1" parent="WAY5q-WWtIifcvpQ36K1-414">
          <mxGeometry x="80" width="10" height="20" as="geometry" />
        </mxCell>
        <mxCell id="WAY5q-WWtIifcvpQ36K1-534" value="" style="group" vertex="1" connectable="0" parent="1">
          <mxGeometry x="120" y="920" width="90" height="20" as="geometry" />
        </mxCell>
        <mxCell id="WAY5q-WWtIifcvpQ36K1-526" value="" style="group" vertex="1" connectable="0" parent="WAY5q-WWtIifcvpQ36K1-534">
          <mxGeometry width="90" height="20" as="geometry" />
        </mxCell>
        <mxCell id="WAY5q-WWtIifcvpQ36K1-527" value="" style="group" vertex="1" connectable="0" parent="WAY5q-WWtIifcvpQ36K1-526">
          <mxGeometry width="90" height="20" as="geometry" />
        </mxCell>
        <mxCell id="WAY5q-WWtIifcvpQ36K1-528" value="51" style="rounded=0;whiteSpace=wrap;html=1;" vertex="1" parent="WAY5q-WWtIifcvpQ36K1-527">
          <mxGeometry x="10" width="30" height="20" as="geometry" />
        </mxCell>
        <mxCell id="WAY5q-WWtIifcvpQ36K1-529" value="" style="rounded=0;whiteSpace=wrap;html=1;" vertex="1" parent="WAY5q-WWtIifcvpQ36K1-527">
          <mxGeometry width="10" height="20" as="geometry" />
        </mxCell>
        <mxCell id="WAY5q-WWtIifcvpQ36K1-530" value="" style="rounded=0;whiteSpace=wrap;html=1;" vertex="1" parent="WAY5q-WWtIifcvpQ36K1-527">
          <mxGeometry x="50" width="30" height="20" as="geometry" />
        </mxCell>
        <mxCell id="WAY5q-WWtIifcvpQ36K1-531" value="" style="rounded=0;whiteSpace=wrap;html=1;" vertex="1" parent="WAY5q-WWtIifcvpQ36K1-527">
          <mxGeometry x="40" width="10" height="20" as="geometry" />
        </mxCell>
        <mxCell id="WAY5q-WWtIifcvpQ36K1-532" value="" style="rounded=0;whiteSpace=wrap;html=1;" vertex="1" parent="WAY5q-WWtIifcvpQ36K1-527">
          <mxGeometry x="80" width="10" height="20" as="geometry" />
        </mxCell>
        <mxCell id="WAY5q-WWtIifcvpQ36K1-536" value="" style="endArrow=classic;html=1;edgeStyle=orthogonalEdgeStyle;rounded=0;" edge="1" parent="1">
          <mxGeometry width="50" height="50" relative="1" as="geometry">
            <mxPoint x="10" y="840" as="sourcePoint" />
            <mxPoint x="-10" y="1100" as="targetPoint" />
            <Array as="points">
              <mxPoint x="-50" y="840" />
              <mxPoint x="-50" y="1100" />
            </Array>
          </mxGeometry>
        </mxCell>
        <mxCell id="WAY5q-WWtIifcvpQ36K1-537" value="insert 23" style="text;html=1;align=center;verticalAlign=middle;resizable=0;points=[];autosize=1;" vertex="1" parent="1">
          <mxGeometry x="-50" y="950" width="60" height="20" as="geometry" />
        </mxCell>
        <mxCell id="WAY5q-WWtIifcvpQ36K1-688" value="" style="group" vertex="1" connectable="0" parent="1">
          <mxGeometry x="294" y="1260" width="140" height="20" as="geometry" />
        </mxCell>
        <mxCell id="WAY5q-WWtIifcvpQ36K1-689" value="" style="group" vertex="1" connectable="0" parent="1">
          <mxGeometry x="260" y="1100" width="90" height="20" as="geometry" />
        </mxCell>
        <mxCell id="WAY5q-WWtIifcvpQ36K1-690" value="" style="group" vertex="1" connectable="0" parent="WAY5q-WWtIifcvpQ36K1-689">
          <mxGeometry width="90" height="20" as="geometry" />
        </mxCell>
        <mxCell id="WAY5q-WWtIifcvpQ36K1-691" value="51" style="rounded=0;whiteSpace=wrap;html=1;" vertex="1" parent="WAY5q-WWtIifcvpQ36K1-690">
          <mxGeometry x="10" width="30" height="20" as="geometry" />
        </mxCell>
        <mxCell id="WAY5q-WWtIifcvpQ36K1-692" value="" style="rounded=0;whiteSpace=wrap;html=1;" vertex="1" parent="WAY5q-WWtIifcvpQ36K1-690">
          <mxGeometry width="10" height="20" as="geometry" />
        </mxCell>
        <mxCell id="WAY5q-WWtIifcvpQ36K1-693" value="" style="rounded=0;whiteSpace=wrap;html=1;" vertex="1" parent="WAY5q-WWtIifcvpQ36K1-690">
          <mxGeometry x="50" width="30" height="20" as="geometry" />
        </mxCell>
        <mxCell id="WAY5q-WWtIifcvpQ36K1-694" value="" style="rounded=0;whiteSpace=wrap;html=1;" vertex="1" parent="WAY5q-WWtIifcvpQ36K1-690">
          <mxGeometry x="40" width="10" height="20" as="geometry" />
        </mxCell>
        <mxCell id="WAY5q-WWtIifcvpQ36K1-695" value="" style="rounded=0;whiteSpace=wrap;html=1;" vertex="1" parent="WAY5q-WWtIifcvpQ36K1-690">
          <mxGeometry x="80" width="10" height="20" as="geometry" />
        </mxCell>
        <mxCell id="WAY5q-WWtIifcvpQ36K1-696" style="edgeStyle=none;rounded=0;orthogonalLoop=1;jettySize=auto;html=1;exitX=0;exitY=0.75;exitDx=0;exitDy=0;entryX=1;entryY=0;entryDx=0;entryDy=0;" edge="1" parent="1" source="WAY5q-WWtIifcvpQ36K1-692" target="WAY5q-WWtIifcvpQ36K1-739">
          <mxGeometry relative="1" as="geometry" />
        </mxCell>
        <mxCell id="WAY5q-WWtIifcvpQ36K1-697" style="edgeStyle=none;rounded=0;orthogonalLoop=1;jettySize=auto;html=1;exitX=0;exitY=0.25;exitDx=0;exitDy=0;entryX=1;entryY=0;entryDx=0;entryDy=0;" edge="1" parent="1" source="WAY5q-WWtIifcvpQ36K1-771" target="WAY5q-WWtIifcvpQ36K1-682">
          <mxGeometry relative="1" as="geometry" />
        </mxCell>
        <mxCell id="WAY5q-WWtIifcvpQ36K1-698" value="" style="group" vertex="1" connectable="0" parent="1">
          <mxGeometry x="595" y="1180" width="276" height="110" as="geometry" />
        </mxCell>
        <mxCell id="WAY5q-WWtIifcvpQ36K1-699" value="" style="group" vertex="1" connectable="0" parent="WAY5q-WWtIifcvpQ36K1-698">
          <mxGeometry width="276" height="110" as="geometry" />
        </mxCell>
        <mxCell id="WAY5q-WWtIifcvpQ36K1-700" value="" style="group" vertex="1" connectable="0" parent="WAY5q-WWtIifcvpQ36K1-699">
          <mxGeometry width="276" height="110" as="geometry" />
        </mxCell>
        <mxCell id="WAY5q-WWtIifcvpQ36K1-701" value="" style="group" vertex="1" connectable="0" parent="WAY5q-WWtIifcvpQ36K1-700">
          <mxGeometry width="140" height="20" as="geometry" />
        </mxCell>
        <mxCell id="WAY5q-WWtIifcvpQ36K1-702" value="" style="group" vertex="1" connectable="0" parent="WAY5q-WWtIifcvpQ36K1-700">
          <mxGeometry x="96" width="220" height="110" as="geometry" />
        </mxCell>
        <mxCell id="WAY5q-WWtIifcvpQ36K1-703" value="" style="group" vertex="1" connectable="0" parent="WAY5q-WWtIifcvpQ36K1-702">
          <mxGeometry x="80" y="90" width="140" height="20" as="geometry" />
        </mxCell>
        <mxCell id="WAY5q-WWtIifcvpQ36K1-704" value="" style="group" vertex="1" connectable="0" parent="WAY5q-WWtIifcvpQ36K1-703">
          <mxGeometry width="140" height="20" as="geometry" />
        </mxCell>
        <mxCell id="WAY5q-WWtIifcvpQ36K1-705" value="" style="group" vertex="1" connectable="0" parent="WAY5q-WWtIifcvpQ36K1-704">
          <mxGeometry width="140" height="20" as="geometry" />
        </mxCell>
        <mxCell id="WAY5q-WWtIifcvpQ36K1-706" value="" style="group" vertex="1" connectable="0" parent="WAY5q-WWtIifcvpQ36K1-705">
          <mxGeometry x="10" width="90" height="20" as="geometry" />
        </mxCell>
        <mxCell id="WAY5q-WWtIifcvpQ36K1-707" value="88" style="rounded=0;whiteSpace=wrap;html=1;" vertex="1" parent="WAY5q-WWtIifcvpQ36K1-706">
          <mxGeometry x="10" width="30" height="20" as="geometry" />
        </mxCell>
        <mxCell id="WAY5q-WWtIifcvpQ36K1-708" value="" style="rounded=0;whiteSpace=wrap;html=1;" vertex="1" parent="WAY5q-WWtIifcvpQ36K1-706">
          <mxGeometry width="10" height="20" as="geometry" />
        </mxCell>
        <mxCell id="WAY5q-WWtIifcvpQ36K1-709" value="" style="rounded=0;whiteSpace=wrap;html=1;" vertex="1" parent="WAY5q-WWtIifcvpQ36K1-706">
          <mxGeometry x="50" width="30" height="20" as="geometry" />
        </mxCell>
        <mxCell id="WAY5q-WWtIifcvpQ36K1-710" value="" style="rounded=0;whiteSpace=wrap;html=1;" vertex="1" parent="WAY5q-WWtIifcvpQ36K1-706">
          <mxGeometry x="40" width="10" height="20" as="geometry" />
        </mxCell>
        <mxCell id="WAY5q-WWtIifcvpQ36K1-711" value="" style="rounded=0;whiteSpace=wrap;html=1;" vertex="1" parent="WAY5q-WWtIifcvpQ36K1-706">
          <mxGeometry x="80" width="10" height="20" as="geometry" />
        </mxCell>
        <mxCell id="WAY5q-WWtIifcvpQ36K1-712" value="" style="group" vertex="1" connectable="0" parent="WAY5q-WWtIifcvpQ36K1-702">
          <mxGeometry width="140" height="110" as="geometry" />
        </mxCell>
        <mxCell id="WAY5q-WWtIifcvpQ36K1-713" value="" style="group" vertex="1" connectable="0" parent="WAY5q-WWtIifcvpQ36K1-712">
          <mxGeometry y="90" width="140" height="20" as="geometry" />
        </mxCell>
        <mxCell id="WAY5q-WWtIifcvpQ36K1-714" value="" style="group" vertex="1" connectable="0" parent="WAY5q-WWtIifcvpQ36K1-713">
          <mxGeometry width="140" height="20" as="geometry" />
        </mxCell>
        <mxCell id="WAY5q-WWtIifcvpQ36K1-715" value="" style="group" vertex="1" connectable="0" parent="WAY5q-WWtIifcvpQ36K1-713">
          <mxGeometry x="-65" width="140" height="20" as="geometry" />
        </mxCell>
        <mxCell id="WAY5q-WWtIifcvpQ36K1-716" value="" style="group" vertex="1" connectable="0" parent="WAY5q-WWtIifcvpQ36K1-715">
          <mxGeometry width="140" height="20" as="geometry" />
        </mxCell>
        <mxCell id="WAY5q-WWtIifcvpQ36K1-717" value="" style="group" vertex="1" connectable="0" parent="WAY5q-WWtIifcvpQ36K1-716">
          <mxGeometry width="140" height="20" as="geometry" />
        </mxCell>
        <mxCell id="WAY5q-WWtIifcvpQ36K1-718" value="" style="group" vertex="1" connectable="0" parent="WAY5q-WWtIifcvpQ36K1-717">
          <mxGeometry x="10" width="90" height="20" as="geometry" />
        </mxCell>
        <mxCell id="WAY5q-WWtIifcvpQ36K1-719" value="85" style="rounded=0;whiteSpace=wrap;html=1;" vertex="1" parent="WAY5q-WWtIifcvpQ36K1-718">
          <mxGeometry x="10" width="30" height="20" as="geometry" />
        </mxCell>
        <mxCell id="WAY5q-WWtIifcvpQ36K1-720" value="" style="rounded=0;whiteSpace=wrap;html=1;" vertex="1" parent="WAY5q-WWtIifcvpQ36K1-718">
          <mxGeometry width="10" height="20" as="geometry" />
        </mxCell>
        <mxCell id="WAY5q-WWtIifcvpQ36K1-721" value="" style="rounded=0;whiteSpace=wrap;html=1;" vertex="1" parent="WAY5q-WWtIifcvpQ36K1-718">
          <mxGeometry x="50" width="30" height="20" as="geometry" />
        </mxCell>
        <mxCell id="WAY5q-WWtIifcvpQ36K1-722" value="" style="rounded=0;whiteSpace=wrap;html=1;" vertex="1" parent="WAY5q-WWtIifcvpQ36K1-718">
          <mxGeometry x="40" width="10" height="20" as="geometry" />
        </mxCell>
        <mxCell id="WAY5q-WWtIifcvpQ36K1-723" value="" style="rounded=0;whiteSpace=wrap;html=1;" vertex="1" parent="WAY5q-WWtIifcvpQ36K1-718">
          <mxGeometry x="80" width="10" height="20" as="geometry" />
        </mxCell>
        <mxCell id="WAY5q-WWtIifcvpQ36K1-724" style="edgeStyle=none;rounded=0;orthogonalLoop=1;jettySize=auto;html=1;exitX=0;exitY=0.5;exitDx=0;exitDy=0;entryX=0.5;entryY=0;entryDx=0;entryDy=0;" edge="1" parent="WAY5q-WWtIifcvpQ36K1-712" source="WAY5q-WWtIifcvpQ36K1-728" target="WAY5q-WWtIifcvpQ36K1-722">
          <mxGeometry relative="1" as="geometry" />
        </mxCell>
        <mxCell id="WAY5q-WWtIifcvpQ36K1-725" value="" style="group" vertex="1" connectable="0" parent="WAY5q-WWtIifcvpQ36K1-712">
          <mxGeometry x="10" width="90" height="20" as="geometry" />
        </mxCell>
        <mxCell id="WAY5q-WWtIifcvpQ36K1-726" value="" style="group" vertex="1" connectable="0" parent="WAY5q-WWtIifcvpQ36K1-725">
          <mxGeometry width="90" height="20" as="geometry" />
        </mxCell>
        <mxCell id="WAY5q-WWtIifcvpQ36K1-727" value="88" style="rounded=0;whiteSpace=wrap;html=1;" vertex="1" parent="WAY5q-WWtIifcvpQ36K1-726">
          <mxGeometry x="10" width="30" height="20" as="geometry" />
        </mxCell>
        <mxCell id="WAY5q-WWtIifcvpQ36K1-728" value="" style="rounded=0;whiteSpace=wrap;html=1;" vertex="1" parent="WAY5q-WWtIifcvpQ36K1-726">
          <mxGeometry width="10" height="20" as="geometry" />
        </mxCell>
        <mxCell id="WAY5q-WWtIifcvpQ36K1-729" value="" style="rounded=0;whiteSpace=wrap;html=1;" vertex="1" parent="WAY5q-WWtIifcvpQ36K1-726">
          <mxGeometry x="50" width="30" height="20" as="geometry" />
        </mxCell>
        <mxCell id="WAY5q-WWtIifcvpQ36K1-730" value="" style="rounded=0;whiteSpace=wrap;html=1;" vertex="1" parent="WAY5q-WWtIifcvpQ36K1-726">
          <mxGeometry x="40" width="10" height="20" as="geometry" />
        </mxCell>
        <mxCell id="WAY5q-WWtIifcvpQ36K1-731" value="" style="rounded=0;whiteSpace=wrap;html=1;" vertex="1" parent="WAY5q-WWtIifcvpQ36K1-726">
          <mxGeometry x="80" width="10" height="20" as="geometry" />
        </mxCell>
        <mxCell id="WAY5q-WWtIifcvpQ36K1-732" style="edgeStyle=none;rounded=0;orthogonalLoop=1;jettySize=auto;html=1;exitX=1;exitY=0.5;exitDx=0;exitDy=0;entryX=1;entryY=0;entryDx=0;entryDy=0;" edge="1" parent="WAY5q-WWtIifcvpQ36K1-702" source="WAY5q-WWtIifcvpQ36K1-730" target="WAY5q-WWtIifcvpQ36K1-707">
          <mxGeometry relative="1" as="geometry" />
        </mxCell>
        <mxCell id="WAY5q-WWtIifcvpQ36K1-733" style="edgeStyle=none;rounded=0;orthogonalLoop=1;jettySize=auto;html=1;exitX=0.25;exitY=1;exitDx=0;exitDy=0;entryX=1;entryY=0;entryDx=0;entryDy=0;" edge="1" parent="1" source="WAY5q-WWtIifcvpQ36K1-773" target="WAY5q-WWtIifcvpQ36K1-730">
          <mxGeometry relative="1" as="geometry" />
        </mxCell>
        <mxCell id="WAY5q-WWtIifcvpQ36K1-734" style="rounded=0;orthogonalLoop=1;jettySize=auto;html=1;exitX=0;exitY=0.5;exitDx=0;exitDy=0;entryX=0.5;entryY=0;entryDx=0;entryDy=0;" edge="1" parent="1" source="WAY5q-WWtIifcvpQ36K1-740" target="WAY5q-WWtIifcvpQ36K1-758">
          <mxGeometry relative="1" as="geometry" />
        </mxCell>
        <mxCell id="WAY5q-WWtIifcvpQ36K1-735" value="" style="group" vertex="1" connectable="0" parent="1">
          <mxGeometry x="20" y="1180" width="140" height="20" as="geometry" />
        </mxCell>
        <mxCell id="WAY5q-WWtIifcvpQ36K1-736" value="" style="group" vertex="1" connectable="0" parent="WAY5q-WWtIifcvpQ36K1-735">
          <mxGeometry width="140" height="20" as="geometry" />
        </mxCell>
        <mxCell id="WAY5q-WWtIifcvpQ36K1-737" value="" style="group" vertex="1" connectable="0" parent="WAY5q-WWtIifcvpQ36K1-736">
          <mxGeometry width="140" height="20" as="geometry" />
        </mxCell>
        <mxCell id="WAY5q-WWtIifcvpQ36K1-738" value="" style="group" vertex="1" connectable="0" parent="WAY5q-WWtIifcvpQ36K1-737">
          <mxGeometry x="10" width="90" height="20" as="geometry" />
        </mxCell>
        <mxCell id="WAY5q-WWtIifcvpQ36K1-739" value="41" style="rounded=0;whiteSpace=wrap;html=1;" vertex="1" parent="WAY5q-WWtIifcvpQ36K1-738">
          <mxGeometry x="10" width="30" height="20" as="geometry" />
        </mxCell>
        <mxCell id="WAY5q-WWtIifcvpQ36K1-740" value="" style="rounded=0;whiteSpace=wrap;html=1;" vertex="1" parent="WAY5q-WWtIifcvpQ36K1-738">
          <mxGeometry width="10" height="20" as="geometry" />
        </mxCell>
        <mxCell id="WAY5q-WWtIifcvpQ36K1-741" value="" style="rounded=0;whiteSpace=wrap;html=1;" vertex="1" parent="WAY5q-WWtIifcvpQ36K1-738">
          <mxGeometry x="50" width="30" height="20" as="geometry" />
        </mxCell>
        <mxCell id="WAY5q-WWtIifcvpQ36K1-742" value="" style="rounded=0;whiteSpace=wrap;html=1;" vertex="1" parent="WAY5q-WWtIifcvpQ36K1-738">
          <mxGeometry x="40" width="10" height="20" as="geometry" />
        </mxCell>
        <mxCell id="WAY5q-WWtIifcvpQ36K1-743" value="" style="rounded=0;whiteSpace=wrap;html=1;" vertex="1" parent="WAY5q-WWtIifcvpQ36K1-738">
          <mxGeometry x="80" width="10" height="20" as="geometry" />
        </mxCell>
        <mxCell id="WAY5q-WWtIifcvpQ36K1-744" value="" style="group" vertex="1" connectable="0" parent="1">
          <mxGeometry x="290" y="1270" width="90" height="20" as="geometry" />
        </mxCell>
        <mxCell id="WAY5q-WWtIifcvpQ36K1-745" value="" style="group" vertex="1" connectable="0" parent="WAY5q-WWtIifcvpQ36K1-744">
          <mxGeometry width="90" height="20" as="geometry" />
        </mxCell>
        <mxCell id="WAY5q-WWtIifcvpQ36K1-746" value="53" style="rounded=0;whiteSpace=wrap;html=1;" vertex="1" parent="WAY5q-WWtIifcvpQ36K1-745">
          <mxGeometry x="10" width="30" height="20" as="geometry" />
        </mxCell>
        <mxCell id="WAY5q-WWtIifcvpQ36K1-747" value="" style="rounded=0;whiteSpace=wrap;html=1;" vertex="1" parent="WAY5q-WWtIifcvpQ36K1-745">
          <mxGeometry width="10" height="20" as="geometry" />
        </mxCell>
        <mxCell id="WAY5q-WWtIifcvpQ36K1-748" value="" style="rounded=0;whiteSpace=wrap;html=1;" vertex="1" parent="WAY5q-WWtIifcvpQ36K1-745">
          <mxGeometry x="50" width="30" height="20" as="geometry" />
        </mxCell>
        <mxCell id="WAY5q-WWtIifcvpQ36K1-749" value="" style="rounded=0;whiteSpace=wrap;html=1;" vertex="1" parent="WAY5q-WWtIifcvpQ36K1-745">
          <mxGeometry x="40" width="10" height="20" as="geometry" />
        </mxCell>
        <mxCell id="WAY5q-WWtIifcvpQ36K1-750" value="" style="rounded=0;whiteSpace=wrap;html=1;" vertex="1" parent="WAY5q-WWtIifcvpQ36K1-745">
          <mxGeometry x="80" width="10" height="20" as="geometry" />
        </mxCell>
        <mxCell id="WAY5q-WWtIifcvpQ36K1-751" style="rounded=0;orthogonalLoop=1;jettySize=auto;html=1;exitX=0.5;exitY=1;exitDx=0;exitDy=0;entryX=0.25;entryY=0;entryDx=0;entryDy=0;" edge="1" parent="1" source="WAY5q-WWtIifcvpQ36K1-810" target="WAY5q-WWtIifcvpQ36K1-749">
          <mxGeometry relative="1" as="geometry" />
        </mxCell>
        <mxCell id="WAY5q-WWtIifcvpQ36K1-752" style="edgeStyle=none;rounded=0;orthogonalLoop=1;jettySize=auto;html=1;exitX=1;exitY=0.75;exitDx=0;exitDy=0;entryX=0;entryY=0.25;entryDx=0;entryDy=0;" edge="1" parent="1" source="WAY5q-WWtIifcvpQ36K1-742" target="WAY5q-WWtIifcvpQ36K1-766">
          <mxGeometry relative="1" as="geometry" />
        </mxCell>
        <mxCell id="WAY5q-WWtIifcvpQ36K1-753" value="" style="group" vertex="1" connectable="0" parent="1">
          <mxGeometry x="-50" y="1270" width="90" height="20" as="geometry" />
        </mxCell>
        <mxCell id="WAY5q-WWtIifcvpQ36K1-754" value="" style="group" vertex="1" connectable="0" parent="WAY5q-WWtIifcvpQ36K1-753">
          <mxGeometry width="90" height="20" as="geometry" />
        </mxCell>
        <mxCell id="WAY5q-WWtIifcvpQ36K1-755" value="23" style="rounded=0;whiteSpace=wrap;html=1;" vertex="1" parent="WAY5q-WWtIifcvpQ36K1-754">
          <mxGeometry x="10" width="30" height="20" as="geometry" />
        </mxCell>
        <mxCell id="WAY5q-WWtIifcvpQ36K1-756" value="" style="rounded=0;whiteSpace=wrap;html=1;" vertex="1" parent="WAY5q-WWtIifcvpQ36K1-754">
          <mxGeometry width="10" height="20" as="geometry" />
        </mxCell>
        <mxCell id="WAY5q-WWtIifcvpQ36K1-757" value="36" style="rounded=0;whiteSpace=wrap;html=1;" vertex="1" parent="WAY5q-WWtIifcvpQ36K1-754">
          <mxGeometry x="50" width="30" height="20" as="geometry" />
        </mxCell>
        <mxCell id="WAY5q-WWtIifcvpQ36K1-758" value="" style="rounded=0;whiteSpace=wrap;html=1;" vertex="1" parent="WAY5q-WWtIifcvpQ36K1-754">
          <mxGeometry x="40" width="10" height="20" as="geometry" />
        </mxCell>
        <mxCell id="WAY5q-WWtIifcvpQ36K1-759" value="" style="rounded=0;whiteSpace=wrap;html=1;" vertex="1" parent="WAY5q-WWtIifcvpQ36K1-754">
          <mxGeometry x="80" width="10" height="20" as="geometry" />
        </mxCell>
        <mxCell id="WAY5q-WWtIifcvpQ36K1-760" value="" style="group" vertex="1" connectable="0" parent="1">
          <mxGeometry x="70" y="1270" width="90" height="20" as="geometry" />
        </mxCell>
        <mxCell id="WAY5q-WWtIifcvpQ36K1-761" value="" style="group" vertex="1" connectable="0" parent="WAY5q-WWtIifcvpQ36K1-760">
          <mxGeometry width="90" height="20" as="geometry" />
        </mxCell>
        <mxCell id="WAY5q-WWtIifcvpQ36K1-762" value="" style="group" vertex="1" connectable="0" parent="WAY5q-WWtIifcvpQ36K1-761">
          <mxGeometry width="90" height="20" as="geometry" />
        </mxCell>
        <mxCell id="WAY5q-WWtIifcvpQ36K1-763" value="41" style="rounded=0;whiteSpace=wrap;html=1;" vertex="1" parent="WAY5q-WWtIifcvpQ36K1-762">
          <mxGeometry x="10" width="30" height="20" as="geometry" />
        </mxCell>
        <mxCell id="WAY5q-WWtIifcvpQ36K1-764" value="" style="rounded=0;whiteSpace=wrap;html=1;" vertex="1" parent="WAY5q-WWtIifcvpQ36K1-762">
          <mxGeometry width="10" height="20" as="geometry" />
        </mxCell>
        <mxCell id="WAY5q-WWtIifcvpQ36K1-765" value="" style="rounded=0;whiteSpace=wrap;html=1;" vertex="1" parent="WAY5q-WWtIifcvpQ36K1-762">
          <mxGeometry x="50" width="30" height="20" as="geometry" />
        </mxCell>
        <mxCell id="WAY5q-WWtIifcvpQ36K1-766" value="" style="rounded=0;whiteSpace=wrap;html=1;" vertex="1" parent="WAY5q-WWtIifcvpQ36K1-762">
          <mxGeometry x="40" width="10" height="20" as="geometry" />
        </mxCell>
        <mxCell id="WAY5q-WWtIifcvpQ36K1-767" value="" style="rounded=0;whiteSpace=wrap;html=1;" vertex="1" parent="WAY5q-WWtIifcvpQ36K1-762">
          <mxGeometry x="80" width="10" height="20" as="geometry" />
        </mxCell>
        <mxCell id="WAY5q-WWtIifcvpQ36K1-768" value="" style="group" vertex="1" connectable="0" parent="1">
          <mxGeometry x="555" y="1100" width="90" height="20" as="geometry" />
        </mxCell>
        <mxCell id="WAY5q-WWtIifcvpQ36K1-769" value="" style="group" vertex="1" connectable="0" parent="WAY5q-WWtIifcvpQ36K1-768">
          <mxGeometry width="90" height="20" as="geometry" />
        </mxCell>
        <mxCell id="WAY5q-WWtIifcvpQ36K1-770" value="85" style="rounded=0;whiteSpace=wrap;html=1;" vertex="1" parent="WAY5q-WWtIifcvpQ36K1-769">
          <mxGeometry x="10" width="30" height="20" as="geometry" />
        </mxCell>
        <mxCell id="WAY5q-WWtIifcvpQ36K1-771" value="" style="rounded=0;whiteSpace=wrap;html=1;" vertex="1" parent="WAY5q-WWtIifcvpQ36K1-769">
          <mxGeometry width="10" height="20" as="geometry" />
        </mxCell>
        <mxCell id="WAY5q-WWtIifcvpQ36K1-772" value="" style="rounded=0;whiteSpace=wrap;html=1;" vertex="1" parent="WAY5q-WWtIifcvpQ36K1-769">
          <mxGeometry x="50" width="30" height="20" as="geometry" />
        </mxCell>
        <mxCell id="WAY5q-WWtIifcvpQ36K1-773" value="" style="rounded=0;whiteSpace=wrap;html=1;" vertex="1" parent="WAY5q-WWtIifcvpQ36K1-769">
          <mxGeometry x="40" width="10" height="20" as="geometry" />
        </mxCell>
        <mxCell id="WAY5q-WWtIifcvpQ36K1-774" value="" style="rounded=0;whiteSpace=wrap;html=1;" vertex="1" parent="WAY5q-WWtIifcvpQ36K1-769">
          <mxGeometry x="80" width="10" height="20" as="geometry" />
        </mxCell>
        <mxCell id="WAY5q-WWtIifcvpQ36K1-798" value="" style="group" vertex="1" connectable="0" parent="1">
          <mxGeometry x="185" y="1270" width="90" height="20" as="geometry" />
        </mxCell>
        <mxCell id="WAY5q-WWtIifcvpQ36K1-799" value="" style="group" vertex="1" connectable="0" parent="WAY5q-WWtIifcvpQ36K1-798">
          <mxGeometry width="90" height="20" as="geometry" />
        </mxCell>
        <mxCell id="WAY5q-WWtIifcvpQ36K1-800" value="51" style="rounded=0;whiteSpace=wrap;html=1;" vertex="1" parent="WAY5q-WWtIifcvpQ36K1-799">
          <mxGeometry x="10" width="30" height="20" as="geometry" />
        </mxCell>
        <mxCell id="WAY5q-WWtIifcvpQ36K1-801" value="" style="rounded=0;whiteSpace=wrap;html=1;" vertex="1" parent="WAY5q-WWtIifcvpQ36K1-799">
          <mxGeometry width="10" height="20" as="geometry" />
        </mxCell>
        <mxCell id="WAY5q-WWtIifcvpQ36K1-802" value="" style="rounded=0;whiteSpace=wrap;html=1;" vertex="1" parent="WAY5q-WWtIifcvpQ36K1-799">
          <mxGeometry x="50" width="30" height="20" as="geometry" />
        </mxCell>
        <mxCell id="WAY5q-WWtIifcvpQ36K1-803" value="" style="rounded=0;whiteSpace=wrap;html=1;" vertex="1" parent="WAY5q-WWtIifcvpQ36K1-799">
          <mxGeometry x="40" width="10" height="20" as="geometry" />
        </mxCell>
        <mxCell id="WAY5q-WWtIifcvpQ36K1-804" value="" style="rounded=0;whiteSpace=wrap;html=1;" vertex="1" parent="WAY5q-WWtIifcvpQ36K1-799">
          <mxGeometry x="80" width="10" height="20" as="geometry" />
        </mxCell>
        <mxCell id="WAY5q-WWtIifcvpQ36K1-656" value="" style="group" vertex="1" connectable="0" parent="1">
          <mxGeometry x="294" y="1170" width="140" height="20" as="geometry" />
        </mxCell>
        <mxCell id="WAY5q-WWtIifcvpQ36K1-805" value="" style="group" vertex="1" connectable="0" parent="1">
          <mxGeometry x="240" y="1180" width="90" height="20" as="geometry" />
        </mxCell>
        <mxCell id="WAY5q-WWtIifcvpQ36K1-806" value="" style="group" vertex="1" connectable="0" parent="WAY5q-WWtIifcvpQ36K1-805">
          <mxGeometry width="90" height="20" as="geometry" />
        </mxCell>
        <mxCell id="WAY5q-WWtIifcvpQ36K1-807" value="53" style="rounded=0;whiteSpace=wrap;html=1;" vertex="1" parent="WAY5q-WWtIifcvpQ36K1-806">
          <mxGeometry x="10" width="30" height="20" as="geometry" />
        </mxCell>
        <mxCell id="WAY5q-WWtIifcvpQ36K1-808" value="" style="rounded=0;whiteSpace=wrap;html=1;" vertex="1" parent="WAY5q-WWtIifcvpQ36K1-806">
          <mxGeometry width="10" height="20" as="geometry" />
        </mxCell>
        <mxCell id="WAY5q-WWtIifcvpQ36K1-809" value="" style="rounded=0;whiteSpace=wrap;html=1;" vertex="1" parent="WAY5q-WWtIifcvpQ36K1-806">
          <mxGeometry x="50" width="30" height="20" as="geometry" />
        </mxCell>
        <mxCell id="WAY5q-WWtIifcvpQ36K1-810" value="" style="rounded=0;whiteSpace=wrap;html=1;" vertex="1" parent="WAY5q-WWtIifcvpQ36K1-806">
          <mxGeometry x="40" width="10" height="20" as="geometry" />
        </mxCell>
        <mxCell id="WAY5q-WWtIifcvpQ36K1-811" value="" style="rounded=0;whiteSpace=wrap;html=1;" vertex="1" parent="WAY5q-WWtIifcvpQ36K1-806">
          <mxGeometry x="80" width="10" height="20" as="geometry" />
        </mxCell>
        <mxCell id="WAY5q-WWtIifcvpQ36K1-658" value="" style="group" vertex="1" connectable="0" parent="1">
          <mxGeometry x="510" y="1270" width="140" height="20" as="geometry" />
        </mxCell>
        <mxCell id="WAY5q-WWtIifcvpQ36K1-659" value="" style="group" vertex="1" connectable="0" parent="WAY5q-WWtIifcvpQ36K1-658">
          <mxGeometry width="140" height="20" as="geometry" />
        </mxCell>
        <mxCell id="WAY5q-WWtIifcvpQ36K1-660" value="" style="group" vertex="1" connectable="0" parent="WAY5q-WWtIifcvpQ36K1-659">
          <mxGeometry width="140" height="20" as="geometry" />
        </mxCell>
        <mxCell id="WAY5q-WWtIifcvpQ36K1-661" value="" style="group" vertex="1" connectable="0" parent="WAY5q-WWtIifcvpQ36K1-660">
          <mxGeometry x="10" width="90" height="20" as="geometry" />
        </mxCell>
        <mxCell id="WAY5q-WWtIifcvpQ36K1-662" value="80" style="rounded=0;whiteSpace=wrap;html=1;" vertex="1" parent="WAY5q-WWtIifcvpQ36K1-661">
          <mxGeometry x="10" width="30" height="20" as="geometry" />
        </mxCell>
        <mxCell id="WAY5q-WWtIifcvpQ36K1-663" value="" style="rounded=0;whiteSpace=wrap;html=1;" vertex="1" parent="WAY5q-WWtIifcvpQ36K1-661">
          <mxGeometry width="10" height="20" as="geometry" />
        </mxCell>
        <mxCell id="WAY5q-WWtIifcvpQ36K1-664" value="" style="rounded=0;whiteSpace=wrap;html=1;" vertex="1" parent="WAY5q-WWtIifcvpQ36K1-661">
          <mxGeometry x="50" width="30" height="20" as="geometry" />
        </mxCell>
        <mxCell id="WAY5q-WWtIifcvpQ36K1-665" value="" style="rounded=0;whiteSpace=wrap;html=1;" vertex="1" parent="WAY5q-WWtIifcvpQ36K1-661">
          <mxGeometry x="40" width="10" height="20" as="geometry" />
        </mxCell>
        <mxCell id="WAY5q-WWtIifcvpQ36K1-666" value="" style="rounded=0;whiteSpace=wrap;html=1;" vertex="1" parent="WAY5q-WWtIifcvpQ36K1-661">
          <mxGeometry x="80" width="10" height="20" as="geometry" />
        </mxCell>
        <mxCell id="WAY5q-WWtIifcvpQ36K1-687" style="edgeStyle=none;rounded=0;orthogonalLoop=1;jettySize=auto;html=1;exitX=1;exitY=0.5;exitDx=0;exitDy=0;entryX=1;entryY=0;entryDx=0;entryDy=0;" edge="1" parent="1" source="WAY5q-WWtIifcvpQ36K1-685" target="WAY5q-WWtIifcvpQ36K1-662">
          <mxGeometry relative="1" as="geometry" />
        </mxCell>
        <mxCell id="WAY5q-WWtIifcvpQ36K1-668" value="" style="group" vertex="1" connectable="0" parent="1">
          <mxGeometry x="455" y="1270" width="140" height="20" as="geometry" />
        </mxCell>
        <mxCell id="WAY5q-WWtIifcvpQ36K1-669" value="" style="group" vertex="1" connectable="0" parent="WAY5q-WWtIifcvpQ36K1-668">
          <mxGeometry width="140" height="20" as="geometry" />
        </mxCell>
        <mxCell id="WAY5q-WWtIifcvpQ36K1-670" value="" style="group" vertex="1" connectable="0" parent="WAY5q-WWtIifcvpQ36K1-668">
          <mxGeometry x="-65" width="140" height="20" as="geometry" />
        </mxCell>
        <mxCell id="WAY5q-WWtIifcvpQ36K1-671" value="" style="group" vertex="1" connectable="0" parent="WAY5q-WWtIifcvpQ36K1-670">
          <mxGeometry width="140" height="20" as="geometry" />
        </mxCell>
        <mxCell id="WAY5q-WWtIifcvpQ36K1-672" value="" style="group" vertex="1" connectable="0" parent="WAY5q-WWtIifcvpQ36K1-671">
          <mxGeometry width="140" height="20" as="geometry" />
        </mxCell>
        <mxCell id="WAY5q-WWtIifcvpQ36K1-673" value="" style="group" vertex="1" connectable="0" parent="WAY5q-WWtIifcvpQ36K1-672">
          <mxGeometry x="10" width="90" height="20" as="geometry" />
        </mxCell>
        <mxCell id="WAY5q-WWtIifcvpQ36K1-674" value="77" style="rounded=0;whiteSpace=wrap;html=1;" vertex="1" parent="WAY5q-WWtIifcvpQ36K1-673">
          <mxGeometry x="10" width="30" height="20" as="geometry" />
        </mxCell>
        <mxCell id="WAY5q-WWtIifcvpQ36K1-675" value="" style="rounded=0;whiteSpace=wrap;html=1;" vertex="1" parent="WAY5q-WWtIifcvpQ36K1-673">
          <mxGeometry width="10" height="20" as="geometry" />
        </mxCell>
        <mxCell id="WAY5q-WWtIifcvpQ36K1-676" value="" style="rounded=0;whiteSpace=wrap;html=1;" vertex="1" parent="WAY5q-WWtIifcvpQ36K1-673">
          <mxGeometry x="50" width="30" height="20" as="geometry" />
        </mxCell>
        <mxCell id="WAY5q-WWtIifcvpQ36K1-677" value="" style="rounded=0;whiteSpace=wrap;html=1;" vertex="1" parent="WAY5q-WWtIifcvpQ36K1-673">
          <mxGeometry x="40" width="10" height="20" as="geometry" />
        </mxCell>
        <mxCell id="WAY5q-WWtIifcvpQ36K1-678" value="" style="rounded=0;whiteSpace=wrap;html=1;" vertex="1" parent="WAY5q-WWtIifcvpQ36K1-673">
          <mxGeometry x="80" width="10" height="20" as="geometry" />
        </mxCell>
        <mxCell id="WAY5q-WWtIifcvpQ36K1-679" style="edgeStyle=none;rounded=0;orthogonalLoop=1;jettySize=auto;html=1;exitX=0;exitY=0.5;exitDx=0;exitDy=0;entryX=0.5;entryY=0;entryDx=0;entryDy=0;" edge="1" parent="1" source="WAY5q-WWtIifcvpQ36K1-683" target="WAY5q-WWtIifcvpQ36K1-677">
          <mxGeometry relative="1" as="geometry" />
        </mxCell>
        <mxCell id="WAY5q-WWtIifcvpQ36K1-680" value="" style="group" vertex="1" connectable="0" parent="1">
          <mxGeometry x="470" y="1180" width="90" height="20" as="geometry" />
        </mxCell>
        <mxCell id="WAY5q-WWtIifcvpQ36K1-681" value="" style="group" vertex="1" connectable="0" parent="WAY5q-WWtIifcvpQ36K1-680">
          <mxGeometry width="90" height="20" as="geometry" />
        </mxCell>
        <mxCell id="WAY5q-WWtIifcvpQ36K1-682" value="80" style="rounded=0;whiteSpace=wrap;html=1;" vertex="1" parent="WAY5q-WWtIifcvpQ36K1-681">
          <mxGeometry x="10" width="30" height="20" as="geometry" />
        </mxCell>
        <mxCell id="WAY5q-WWtIifcvpQ36K1-683" value="" style="rounded=0;whiteSpace=wrap;html=1;" vertex="1" parent="WAY5q-WWtIifcvpQ36K1-681">
          <mxGeometry width="10" height="20" as="geometry" />
        </mxCell>
        <mxCell id="WAY5q-WWtIifcvpQ36K1-684" value="" style="rounded=0;whiteSpace=wrap;html=1;" vertex="1" parent="WAY5q-WWtIifcvpQ36K1-681">
          <mxGeometry x="50" width="30" height="20" as="geometry" />
        </mxCell>
        <mxCell id="WAY5q-WWtIifcvpQ36K1-685" value="" style="rounded=0;whiteSpace=wrap;html=1;" vertex="1" parent="WAY5q-WWtIifcvpQ36K1-681">
          <mxGeometry x="40" width="10" height="20" as="geometry" />
        </mxCell>
        <mxCell id="WAY5q-WWtIifcvpQ36K1-686" value="" style="rounded=0;whiteSpace=wrap;html=1;" vertex="1" parent="WAY5q-WWtIifcvpQ36K1-681">
          <mxGeometry x="80" width="10" height="20" as="geometry" />
        </mxCell>
        <mxCell id="WAY5q-WWtIifcvpQ36K1-815" style="edgeStyle=none;rounded=0;orthogonalLoop=1;jettySize=auto;html=1;exitX=0;exitY=0.5;exitDx=0;exitDy=0;entryX=0.25;entryY=0;entryDx=0;entryDy=0;" edge="1" parent="1" source="WAY5q-WWtIifcvpQ36K1-808" target="WAY5q-WWtIifcvpQ36K1-803">
          <mxGeometry relative="1" as="geometry" />
        </mxCell>
        <mxCell id="WAY5q-WWtIifcvpQ36K1-816" value="" style="group" vertex="1" connectable="0" parent="1">
          <mxGeometry x="395" y="1000" width="90" height="20" as="geometry" />
        </mxCell>
        <mxCell id="WAY5q-WWtIifcvpQ36K1-817" value="" style="group" vertex="1" connectable="0" parent="WAY5q-WWtIifcvpQ36K1-816">
          <mxGeometry width="90" height="20" as="geometry" />
        </mxCell>
        <mxCell id="WAY5q-WWtIifcvpQ36K1-818" value="77" style="rounded=0;whiteSpace=wrap;html=1;" vertex="1" parent="WAY5q-WWtIifcvpQ36K1-817">
          <mxGeometry x="10" width="30" height="20" as="geometry" />
        </mxCell>
        <mxCell id="WAY5q-WWtIifcvpQ36K1-819" value="" style="rounded=0;whiteSpace=wrap;html=1;" vertex="1" parent="WAY5q-WWtIifcvpQ36K1-817">
          <mxGeometry width="10" height="20" as="geometry" />
        </mxCell>
        <mxCell id="WAY5q-WWtIifcvpQ36K1-820" value="" style="rounded=0;whiteSpace=wrap;html=1;" vertex="1" parent="WAY5q-WWtIifcvpQ36K1-817">
          <mxGeometry x="50" width="30" height="20" as="geometry" />
        </mxCell>
        <mxCell id="WAY5q-WWtIifcvpQ36K1-821" value="" style="rounded=0;whiteSpace=wrap;html=1;" vertex="1" parent="WAY5q-WWtIifcvpQ36K1-817">
          <mxGeometry x="40" width="10" height="20" as="geometry" />
        </mxCell>
        <mxCell id="WAY5q-WWtIifcvpQ36K1-822" value="" style="rounded=0;whiteSpace=wrap;html=1;" vertex="1" parent="WAY5q-WWtIifcvpQ36K1-817">
          <mxGeometry x="80" width="10" height="20" as="geometry" />
        </mxCell>
        <mxCell id="WAY5q-WWtIifcvpQ36K1-823" style="edgeStyle=none;rounded=0;orthogonalLoop=1;jettySize=auto;html=1;exitX=1;exitY=0.5;exitDx=0;exitDy=0;entryX=0.75;entryY=0;entryDx=0;entryDy=0;" edge="1" parent="1" source="WAY5q-WWtIifcvpQ36K1-819" target="WAY5q-WWtIifcvpQ36K1-694">
          <mxGeometry relative="1" as="geometry" />
        </mxCell>
        <mxCell id="WAY5q-WWtIifcvpQ36K1-824" style="edgeStyle=none;rounded=0;orthogonalLoop=1;jettySize=auto;html=1;exitX=0;exitY=0.5;exitDx=0;exitDy=0;entryX=0.75;entryY=0;entryDx=0;entryDy=0;" edge="1" parent="1" source="WAY5q-WWtIifcvpQ36K1-821" target="WAY5q-WWtIifcvpQ36K1-773">
          <mxGeometry relative="1" as="geometry" />
        </mxCell>
        <mxCell id="WAY5q-WWtIifcvpQ36K1-825" style="edgeStyle=none;rounded=0;orthogonalLoop=1;jettySize=auto;html=1;exitX=0;exitY=0.5;exitDx=0;exitDy=0;entryX=0;entryY=0.5;entryDx=0;entryDy=0;" edge="1" parent="1" source="WAY5q-WWtIifcvpQ36K1-67" target="WAY5q-WWtIifcvpQ36K1-76">
          <mxGeometry relative="1" as="geometry" />
        </mxCell>
        <mxCell id="WAY5q-WWtIifcvpQ36K1-826" style="edgeStyle=none;rounded=0;orthogonalLoop=1;jettySize=auto;html=1;exitX=0;exitY=0.5;exitDx=0;exitDy=0;entryX=0;entryY=0.5;entryDx=0;entryDy=0;" edge="1" parent="1" source="WAY5q-WWtIifcvpQ36K1-79" target="WAY5q-WWtIifcvpQ36K1-101">
          <mxGeometry relative="1" as="geometry" />
        </mxCell>
        <mxCell id="WAY5q-WWtIifcvpQ36K1-827" style="edgeStyle=none;rounded=0;orthogonalLoop=1;jettySize=auto;html=1;exitX=1;exitY=0.5;exitDx=0;exitDy=0;entryX=0;entryY=0.5;entryDx=0;entryDy=0;" edge="1" parent="1" source="WAY5q-WWtIifcvpQ36K1-199" target="WAY5q-WWtIifcvpQ36K1-326">
          <mxGeometry relative="1" as="geometry" />
        </mxCell>
        <mxCell id="WAY5q-WWtIifcvpQ36K1-828" style="edgeStyle=none;rounded=0;orthogonalLoop=1;jettySize=auto;html=1;exitX=1;exitY=0.5;exitDx=0;exitDy=0;entryX=0;entryY=0.5;entryDx=0;entryDy=0;" edge="1" parent="1" source="WAY5q-WWtIifcvpQ36K1-329" target="WAY5q-WWtIifcvpQ36K1-208">
          <mxGeometry relative="1" as="geometry" />
        </mxCell>
        <mxCell id="WAY5q-WWtIifcvpQ36K1-829" style="edgeStyle=none;rounded=0;orthogonalLoop=1;jettySize=auto;html=1;exitX=1;exitY=0.5;exitDx=0;exitDy=0;" edge="1" parent="1" source="WAY5q-WWtIifcvpQ36K1-211">
          <mxGeometry relative="1" as="geometry">
            <mxPoint x="640" y="630" as="targetPoint" />
          </mxGeometry>
        </mxCell>
        <mxCell id="WAY5q-WWtIifcvpQ36K1-832" style="edgeStyle=none;rounded=0;orthogonalLoop=1;jettySize=auto;html=1;exitX=1;exitY=0.5;exitDx=0;exitDy=0;entryX=0;entryY=0.5;entryDx=0;entryDy=0;" edge="1" parent="1" source="WAY5q-WWtIifcvpQ36K1-419" target="WAY5q-WWtIifcvpQ36K1-529">
          <mxGeometry relative="1" as="geometry" />
        </mxCell>
        <mxCell id="WAY5q-WWtIifcvpQ36K1-833" style="edgeStyle=none;rounded=0;orthogonalLoop=1;jettySize=auto;html=1;exitX=1;exitY=0.5;exitDx=0;exitDy=0;entryX=0;entryY=0.5;entryDx=0;entryDy=0;" edge="1" parent="1" source="WAY5q-WWtIifcvpQ36K1-532" target="WAY5q-WWtIifcvpQ36K1-461">
          <mxGeometry relative="1" as="geometry" />
        </mxCell>
        <mxCell id="WAY5q-WWtIifcvpQ36K1-834" style="edgeStyle=none;rounded=0;orthogonalLoop=1;jettySize=auto;html=1;entryX=0;entryY=0.5;entryDx=0;entryDy=0;" edge="1" parent="1" source="WAY5q-WWtIifcvpQ36K1-462" target="WAY5q-WWtIifcvpQ36K1-428">
          <mxGeometry relative="1" as="geometry" />
        </mxCell>
        <mxCell id="WAY5q-WWtIifcvpQ36K1-838" style="edgeStyle=none;rounded=0;orthogonalLoop=1;jettySize=auto;html=1;exitX=1;exitY=0.5;exitDx=0;exitDy=0;" edge="1" parent="1" source="WAY5q-WWtIifcvpQ36K1-473">
          <mxGeometry relative="1" as="geometry">
            <mxPoint x="580" y="930" as="targetPoint" />
          </mxGeometry>
        </mxCell>
        <mxCell id="WAY5q-WWtIifcvpQ36K1-840" style="edgeStyle=none;rounded=0;orthogonalLoop=1;jettySize=auto;html=1;exitX=0;exitY=0.75;exitDx=0;exitDy=0;entryX=0.75;entryY=0;entryDx=0;entryDy=0;" edge="1" parent="1" source="WAY5q-WWtIifcvpQ36K1-694" target="WAY5q-WWtIifcvpQ36K1-810">
          <mxGeometry relative="1" as="geometry" />
        </mxCell>
      </root>
    </mxGraphModel>
  </diagram>
</mxfile>
